<svg version="1.1" id="Layer_1" xmlns="http://www.w3.org/2000/svg" xmlns:xlink="http://www.w3.org/1999/xlink" x="0px" y="0px"
	 width="100%" viewBox="0 0 3397 3700" enable-background="new 0 0 3397 3700" xml:space="preserve">
<path fill="#008080" opacity="1.000000" stroke="none" 
	d="
M13.984407,3516.031738 
	C10.441309,3518.633057 6.898271,3521.234375 2.677616,3523.917969 
	C2.000000,3524.000000 2.000000,3523.000000 2.000021,3522.500000 
	C4.162655,3519.544189 6.730881,3517.339844 8.429240,3514.596436 
	C67.861099,3418.597168 127.195923,3322.537598 186.577881,3226.507324 
	C232.997543,3151.439697 279.495514,3076.420410 325.896667,3001.341309 
	C384.204620,2906.996582 442.416992,2812.592529 500.731415,2718.251953 
	C548.539429,2640.908447 596.477295,2563.645508 644.284363,2486.301514 
	C709.776733,2380.345459 775.173828,2274.330566 840.661316,2168.371338 
	C887.063354,2093.292725 933.584045,2018.287476 979.984985,1943.208008 
	C1038.292480,1848.863159 1096.493042,1754.452026 1154.812988,1660.114746 
	C1202.800537,1582.490845 1250.937134,1504.958984 1298.931641,1427.339478 
	C1363.040161,1323.659424 1427.073242,1219.932861 1491.152832,1116.234985 
	C1492.868530,1113.458618 1494.746826,1110.782715 1497.114624,1107.206421 
	C1619.484741,1213.932373 1741.240356,1320.122437 1863.552124,1426.797485 
	C1868.355591,1421.258179 1872.541016,1416.609131 1876.534058,1411.800171 
	C1946.280273,1327.801147 2015.987061,1243.769653 2085.733887,1159.771240 
	C2183.762939,1041.711426 2281.818359,923.673340 2379.862061,805.625793 
	C2477.906250,687.578430 2575.940674,569.522827 2673.996826,451.485535 
	C2770.777588,334.983917 2867.577637,218.498459 2964.375977,102.011475 
	C2989.904053,71.291237 3015.456787,40.591389 3041.593750,10.413474 
	C3039.410156,18.953676 3036.630615,26.962568 3033.381836,35.470627 
	C3032.243408,37.642311 3031.573975,39.314831 3030.516113,41.562580 
	C3024.612305,54.627102 3019.091309,67.113731 3013.583008,79.606102 
	C2978.645020,158.842957 2943.698486,238.076157 2908.776367,317.320038 
	C2874.391357,395.345062 2840.045410,473.387268 2805.657227,551.410889 
	C2770.597168,630.958923 2735.490967,710.486633 2700.434570,790.036255 
	C2666.181152,867.763123 2631.968018,945.507812 2597.730469,1023.241577 
	C2562.955322,1102.194946 2528.199463,1181.156616 2493.382568,1260.091675 
	C2469.856689,1313.428589 2446.183350,1366.700439 2422.679932,1420.047241 
	C2394.210938,1484.663208 2365.869385,1549.335327 2337.438721,1613.968140 
	C2320.406738,1652.688354 2303.307861,1691.379150 2286.241699,1730.084351 
	C2251.034668,1809.932617 2215.823730,1889.779297 2180.624756,1969.631104 
	C2151.605225,2035.464111 2122.614990,2101.310303 2093.575684,2167.134521 
	C2088.780029,2178.005127 2083.797607,2188.793213 2078.222168,2201.121338 
	C2019.085449,2151.799316 1961.027710,2103.370117 1902.962036,2054.950439 
	C1844.919189,2006.549805 1786.868530,1958.158447 1728.712280,1909.672241 
	C1721.110474,1916.734497 1714.515137,1922.779541 1708.011108,1928.921265 
	C1695.690063,1940.556274 1683.480225,1952.309204 1671.116333,1963.898315 
	C1656.828003,1977.290894 1642.392822,1990.526611 1628.078247,2003.891357 
	C1616.180908,2014.999390 1604.408203,2026.240967 1592.503418,2037.340698 
	C1579.382324,2049.574463 1566.114502,2061.650635 1553.019043,2073.911865 
	C1540.396973,2085.729736 1527.965942,2097.751709 1515.354980,2109.581543 
	C1501.300171,2122.765625 1487.115967,2135.812012 1473.027588,2148.960449 
	C1461.125854,2160.068359 1449.318970,2171.278076 1437.399170,2182.366455 
	C1424.758911,2194.124756 1411.955566,2205.708740 1399.370117,2217.524902 
	C1386.293335,2229.802002 1373.509644,2242.392334 1360.384766,2254.617188 
	C1342.898438,2270.904785 1325.091309,2286.848389 1307.633789,2303.166504 
	C1289.187988,2320.408203 1271.050903,2337.979736 1252.669678,2355.291260 
	C1232.356201,2374.422852 1211.916748,2393.420654 1191.536987,2412.481934 
	C1185.463135,2418.162842 1179.427856,2423.885010 1173.335449,2429.545898 
	C1159.708740,2442.208008 1146.010376,2454.793457 1132.429077,2467.504395 
	C1120.298706,2478.857666 1108.372925,2490.430420 1096.201172,2501.739258 
	C1078.444946,2518.236328 1060.460815,2534.488525 1042.742432,2551.025879 
	C1029.630615,2563.263916 1016.867126,2575.874023 1003.806030,2588.166992 
	C983.736511,2607.055664 963.542053,2625.811768 943.406921,2644.631104 
	C937.336365,2650.304932 931.313477,2656.030029 925.222900,2661.682373 
	C911.601990,2674.323486 897.909485,2686.887451 884.326355,2699.568604 
	C871.934814,2711.137451 859.677734,2722.850342 847.308594,2734.443359 
	C833.730042,2747.170166 820.070374,2759.810303 806.484619,2772.529297 
	C794.107178,2784.116943 781.812378,2795.793213 769.424255,2807.369385 
	C755.833618,2820.069580 742.138855,2832.658203 728.562073,2845.372803 
	C716.434143,2856.730225 704.462402,2868.254639 692.315918,2879.591797 
	C679.214600,2891.820557 665.922668,2903.845459 652.838989,2916.093018 
	C640.226562,2927.899414 627.857483,2939.966064 615.227966,2951.753906 
	C602.124207,2963.984375 588.752991,2975.928467 575.652222,2988.162109 
	C563.027649,2999.951416 550.696655,3012.055664 538.061035,3023.833252 
	C520.082642,3040.591064 501.863403,3057.090332 483.900513,3073.864502 
	C470.776062,3086.120117 458.015167,3098.765137 444.883698,3111.012939 
	C427.150360,3127.552979 409.086395,3143.739258 391.402130,3160.331055 
	C368.144714,3182.151611 345.130737,3204.231934 321.984863,3226.171631 
	C316.196075,3231.658936 310.318634,3237.052734 304.455109,3242.460449 
	C291.280945,3254.610352 278.015503,3266.662598 264.926910,3278.903564 
	C252.071243,3290.926514 239.462906,3303.213623 226.608337,3315.237549 
	C214.002655,3327.029297 201.139893,3338.546387 188.544266,3350.348389 
	C175.696564,3362.386230 163.146027,3374.741455 150.267944,3386.746094 
	C132.527985,3403.282471 114.563072,3419.577637 96.768082,3436.055420 
	C81.402779,3450.283691 66.084343,3464.563477 50.856625,3478.938477 
	C43.851612,3485.551025 37.112892,3492.445557 29.849411,3499.387451 
	C24.152409,3504.921631 16.067186,3507.659180 13.984407,3516.031738 
z"/>
<path fill="#F2951B" opacity="1.000000" stroke="none" 
	d="
M2366.500000,3702.000000 
	C2365.059570,3700.753174 2364.326660,3699.249512 2363.148682,3698.296387 
	C2321.004150,3664.202881 2278.808838,3630.172119 2236.640625,3596.107910 
	C2191.369385,3559.537354 2146.149414,3522.903564 2100.848633,3486.370117 
	C2062.279541,3455.265869 2023.590088,3424.310791 1985.022827,3393.204102 
	C1941.792480,3358.335938 1898.651489,3323.357178 1855.449707,3288.453857 
	C1806.040283,3248.535889 1756.259277,3209.065430 1707.441650,3168.436768 
	C1696.063599,3158.967529 1686.666138,3157.589111 1672.804199,3161.855957 
	C1572.734253,3192.659912 1472.395752,3222.592529 1372.120361,3252.728516 
	C1297.317627,3275.209229 1222.470825,3297.544434 1147.664429,3320.012939 
	C1061.396118,3345.923828 975.158875,3371.937744 888.892517,3397.854736 
	C813.129700,3420.615723 737.334717,3443.269775 661.572754,3466.033691 
	C571.801941,3493.007080 482.056061,3520.063477 392.290283,3547.053711 
	C327.365479,3566.574707 262.425781,3586.046631 196.976044,3604.938965 
	C197.836823,3602.986816 198.976532,3601.113525 200.626953,3600.362549 
	C229.395752,3587.271240 258.222412,3574.306885 287.046844,3561.338379 
	C307.998383,3551.911621 328.999969,3542.595459 349.914062,3533.086670 
	C366.266144,3525.651855 382.447968,3517.840820 398.829071,3510.472168 
	C430.699524,3496.135986 462.683380,3482.052002 494.570007,3467.751465 
	C521.577515,3455.638916 548.507751,3443.353516 575.484070,3431.170898 
	C603.683167,3418.436523 631.927063,3405.801270 660.091492,3392.990723 
	C676.138916,3385.690918 691.986023,3377.948486 708.066284,3370.723877 
	C732.949768,3359.543701 758.012024,3348.760986 782.889465,3337.567627 
	C799.265503,3330.199219 815.365784,3322.218018 831.739624,3314.844482 
	C857.200684,3303.379150 882.835266,3292.299561 908.312927,3280.870605 
	C942.009216,3265.755371 975.612915,3250.434082 1009.279297,3235.251953 
	C1036.282227,3223.074219 1063.333984,3211.005371 1090.336792,3198.828125 
	C1118.241455,3186.243896 1146.100830,3173.559570 1174.002808,3160.969482 
	C1207.064453,3146.051270 1240.163940,3131.217041 1273.221680,3116.290527 
	C1302.938110,3102.872314 1332.606567,3089.347656 1362.320679,3075.924316 
	C1395.067871,3061.130859 1427.854004,3046.423828 1460.602905,3031.634521 
	C1490.005249,3018.355957 1519.369507,3004.992920 1548.770142,2991.710449 
	C1575.442749,2979.660400 1602.144409,2967.674561 1628.828003,2955.648926 
	C1652.493286,2944.982910 1676.261475,2934.534424 1699.734497,2923.460449 
	C1705.465942,2920.756348 1709.571533,2921.253906 1714.298828,2924.890381 
	C1725.631470,2933.607910 1737.162842,2942.066895 1748.611450,2950.633789 
	C1785.662720,2978.360352 1822.688110,3006.121338 1859.773071,3033.802734 
	C1880.571411,3049.326660 1901.434448,3064.764648 1922.327271,3080.161133 
	C1949.651001,3100.296143 1977.128418,3120.223877 2004.366943,3140.473145 
	C2042.840576,3169.074951 2081.094482,3197.972900 2119.570068,3226.572021 
	C2135.589111,3238.479248 2152.067627,3249.768311 2168.100586,3261.657471 
	C2185.480469,3274.545166 2202.515381,3287.896973 2219.851807,3300.844482 
	C2225.025146,3304.708252 2230.706055,3307.892090 2236.730713,3311.757080 
	C2238.130859,3308.417969 2239.133057,3306.365723 2239.867188,3304.221680 
	C2243.636475,3293.216309 2247.152344,3282.120605 2251.101807,3271.181152 
	C2258.445312,3250.839111 2266.264893,3230.666748 2273.456543,3210.272217 
	C2284.844727,3177.975830 2295.779053,3145.519775 2307.096436,3113.197998 
	C2314.901611,3090.906494 2323.055664,3068.737061 2331.007080,3046.496338 
	C2347.023926,3001.697754 2363.046387,2956.901611 2378.993896,2912.078613 
	C2390.590576,2879.483643 2402.143311,2846.872314 2413.581055,2814.221191 
	C2423.480713,2785.961182 2433.036621,2757.579834 2443.032471,2729.354248 
	C2451.464355,2705.544922 2460.425293,2681.923828 2468.944336,2658.145020 
	C2480.385010,2626.212402 2491.626465,2594.208252 2502.951904,2562.234375 
	C2514.280518,2530.252686 2525.607422,2498.270264 2536.933594,2466.287842 
	C2548.259521,2434.306152 2559.593750,2402.327637 2570.899902,2370.339111 
	C2573.339111,2363.437988 2575.670410,2356.498535 2578.059082,2349.579590 
	C2581.963379,2338.270020 2585.746582,2326.916260 2589.809814,2315.664062 
	C2596.590820,2296.886475 2603.708984,2278.229980 2610.399414,2259.420654 
	C2618.977295,2235.303711 2627.153320,2211.043945 2635.720947,2186.923584 
	C2645.742188,2158.710449 2656.145752,2130.632812 2666.116455,2102.402100 
	C2678.622559,2066.991699 2690.731445,2031.440552 2703.241455,1996.031494 
	C2719.200684,1950.859985 2735.406982,1905.775757 2751.471680,1860.641602 
	C2759.171387,1839.009521 2766.755859,1817.336426 2774.459717,1795.705811 
	C2779.811523,1780.678223 2785.430420,1765.744263 2790.658203,1750.674194 
	C2798.935059,1726.813843 2806.787109,1702.804688 2815.184814,1678.987671 
	C2823.806152,1654.538574 2832.933838,1630.268433 2841.714355,1605.875000 
	C2848.927002,1585.836548 2855.926025,1565.721436 2863.074707,1545.659790 
	C2872.797852,1518.373535 2882.631592,1491.126465 2892.309326,1463.824219 
	C2901.305176,1438.444458 2910.094482,1412.991577 2919.092529,1387.612549 
	C2928.763428,1360.335327 2938.716797,1333.157471 2948.275146,1305.841187 
	C2956.725586,1281.690430 2964.598877,1257.337158 2973.101807,1233.205322 
	C2981.717041,1208.754761 2990.892334,1184.502075 2999.639648,1160.097290 
	C3010.747559,1129.107666 3021.681152,1098.055542 3032.671875,1067.023926 
	C3044.221680,1034.413574 3055.827393,1001.822754 3067.264648,969.172852 
	C3077.274658,940.598083 3086.932129,911.899231 3097.030762,883.356140 
	C3105.678223,858.916382 3114.906250,834.682190 3123.557129,810.243652 
	C3133.546631,782.023315 3143.028320,753.623108 3153.023926,725.404968 
	C3161.245850,702.194336 3169.824463,679.108643 3178.448486,656.043640 
	C3179.544678,653.112549 3181.874023,650.642639 3183.632324,647.959106 
	C3174.671875,682.014404 3165.786621,716.089783 3156.734131,750.120544 
	C3141.868652,806.005737 3126.896484,861.862488 3111.965820,917.730408 
	C3096.863770,974.240051 3081.736328,1030.743042 3066.658691,1087.259277 
	C3047.638916,1158.550171 3028.691895,1229.860474 3009.650146,1301.145386 
	C2993.182129,1362.795044 2976.577393,1424.408203 2960.121582,1486.061035 
	C2942.551514,1551.889038 2925.130615,1617.756714 2907.559814,1683.584595 
	C2890.160156,1748.771240 2872.621338,1813.920776 2855.205322,1879.103027 
	C2836.073730,1950.704102 2817.034912,2022.329956 2797.913086,2093.933594 
	C2781.706543,2154.622070 2765.436523,2215.293457 2749.199707,2275.973877 
	C2731.588379,2341.791504 2713.956787,2407.603516 2696.383789,2473.431396 
	C2681.296631,2529.947510 2666.291504,2586.485352 2651.228271,2643.008057 
	C2632.143311,2714.621338 2613.055664,2786.234375 2593.932617,2857.837646 
	C2577.724854,2918.525635 2561.454834,2979.197021 2545.232910,3039.881104 
	C2527.551514,3106.023682 2509.885010,3172.170410 2492.228516,3238.319824 
	C2477.229004,3294.515381 2462.254395,3350.717773 2447.265869,3406.916260 
	C2428.166504,3478.526855 2409.118164,3550.150879 2389.933838,3621.738770 
	C2382.885254,3648.040039 2375.510742,3674.253906 2368.142578,3701.253906 
	C2368.000000,3702.000000 2367.000000,3702.000000 2366.500000,3702.000000 
z"/>
<path fill="#43A897" opacity="1.000000" stroke="none" 
	d="
M3033.851074,34.971489 
	C3036.630615,26.962568 3039.410156,18.953676 3042.245605,10.107597 
	C3043.361572,7.042192 3044.421143,4.813975 3044.740479,2.292879 
	C3044.888916,2.000000 3045.777832,2.000000 3047.333496,2.000006 
	C3044.413086,13.041074 3040.826172,24.082136 3036.157715,35.276482 
	C3034.667969,35.277020 3034.259766,35.124268 3033.851074,34.971489 
z"/>
<path fill="#D76E10" opacity="1.000000" stroke="none" 
	d="
M3183.998047,647.285095 
	C3181.874023,650.642639 3179.544678,653.112549 3178.448486,656.043640 
	C3169.824463,679.108643 3161.245850,702.194336 3153.023926,725.404968 
	C3143.028320,753.623108 3133.546631,782.023315 3123.557129,810.243652 
	C3114.906250,834.682190 3105.678223,858.916382 3097.030762,883.356140 
	C3086.932129,911.899231 3077.274658,940.598083 3067.264648,969.172852 
	C3055.827393,1001.822754 3044.221680,1034.413574 3032.671875,1067.023926 
	C3021.681152,1098.055542 3010.747559,1129.107666 2999.639648,1160.097290 
	C2990.892334,1184.502075 2981.717041,1208.754761 2973.101807,1233.205322 
	C2964.598877,1257.337158 2956.725586,1281.690430 2948.275146,1305.841187 
	C2938.716797,1333.157471 2928.763428,1360.335327 2919.092529,1387.612549 
	C2910.094482,1412.991577 2901.305176,1438.444458 2892.309326,1463.824219 
	C2882.631592,1491.126465 2872.797852,1518.373535 2863.074707,1545.659790 
	C2855.926025,1565.721436 2848.927002,1585.836548 2841.714355,1605.875000 
	C2832.933838,1630.268433 2823.806152,1654.538574 2815.184814,1678.987671 
	C2806.787109,1702.804688 2798.935059,1726.813843 2790.658203,1750.674194 
	C2785.430420,1765.744263 2779.811523,1780.678223 2774.459717,1795.705811 
	C2766.755859,1817.336426 2759.171387,1839.009521 2751.471680,1860.641602 
	C2735.406982,1905.775757 2719.200684,1950.859985 2703.241455,1996.031494 
	C2690.731445,2031.440552 2678.622559,2066.991699 2666.116455,2102.402100 
	C2656.145752,2130.632812 2645.742188,2158.710449 2635.720947,2186.923584 
	C2627.153320,2211.043945 2618.977295,2235.303711 2610.399414,2259.420654 
	C2603.708984,2278.229980 2596.590820,2296.886475 2589.809814,2315.664062 
	C2585.746582,2326.916260 2581.963379,2338.270020 2578.059082,2349.579590 
	C2575.670410,2356.498535 2573.339111,2363.437988 2570.899902,2370.339111 
	C2559.593750,2402.327637 2548.259521,2434.306152 2536.933594,2466.287842 
	C2525.607422,2498.270264 2514.280518,2530.252686 2502.951904,2562.234375 
	C2491.626465,2594.208252 2480.385010,2626.212402 2468.944336,2658.145020 
	C2460.425293,2681.923828 2451.464355,2705.544922 2443.032471,2729.354248 
	C2433.036621,2757.579834 2423.480713,2785.961182 2413.581055,2814.221191 
	C2402.143311,2846.872314 2390.590576,2879.483643 2378.993896,2912.078613 
	C2363.046387,2956.901611 2347.023926,3001.697754 2331.007080,3046.496338 
	C2323.055664,3068.737061 2314.901611,3090.906494 2307.096436,3113.197998 
	C2295.779053,3145.519775 2284.844727,3177.975830 2273.456543,3210.272217 
	C2266.264893,3230.666748 2258.445312,3250.839111 2251.101807,3271.181152 
	C2247.152344,3282.120605 2243.636475,3293.216309 2239.867188,3304.221680 
	C2239.133057,3306.365723 2238.130859,3308.417969 2236.730713,3311.757080 
	C2230.706055,3307.892090 2225.025146,3304.708252 2219.851807,3300.844482 
	C2202.515381,3287.896973 2185.480469,3274.545166 2168.100586,3261.657471 
	C2152.067627,3249.768311 2135.589111,3238.479248 2119.570068,3226.572021 
	C2081.094482,3197.972900 2042.840576,3169.074951 2004.366943,3140.473145 
	C1977.128418,3120.223877 1949.651001,3100.296143 1922.327271,3080.161133 
	C1901.434448,3064.764648 1880.571411,3049.326660 1859.773071,3033.802734 
	C1822.688110,3006.121338 1785.662720,2978.360352 1748.611450,2950.633789 
	C1737.162842,2942.066895 1725.631470,2933.607910 1714.298828,2924.890381 
	C1709.571533,2921.253906 1705.465942,2920.756348 1699.734497,2923.460449 
	C1676.261475,2934.534424 1652.493286,2944.982910 1628.828003,2955.648926 
	C1602.144409,2967.674561 1575.442749,2979.660400 1548.770142,2991.710449 
	C1519.369507,3004.992920 1490.005249,3018.355957 1460.602905,3031.634521 
	C1427.854004,3046.423828 1395.067871,3061.130859 1362.320679,3075.924316 
	C1332.606567,3089.347656 1302.938110,3102.872314 1273.221680,3116.290527 
	C1240.163940,3131.217041 1207.064453,3146.051270 1174.002808,3160.969482 
	C1146.100830,3173.559570 1118.241455,3186.243896 1090.336792,3198.828125 
	C1063.333984,3211.005371 1036.282227,3223.074219 1009.279297,3235.251953 
	C975.612915,3250.434082 942.009216,3265.755371 908.312927,3280.870605 
	C882.835266,3292.299561 857.200684,3303.379150 831.739624,3314.844482 
	C815.365784,3322.218018 799.265503,3330.199219 782.889465,3337.567627 
	C758.012024,3348.760986 732.949768,3359.543701 708.066284,3370.723877 
	C691.986023,3377.948486 676.138916,3385.690918 660.091492,3392.990723 
	C631.927063,3405.801270 603.683167,3418.436523 575.484070,3431.170898 
	C548.507751,3443.353516 521.577515,3455.638916 494.570007,3467.751465 
	C462.683380,3482.052002 430.699524,3496.135986 398.829071,3510.472168 
	C382.447968,3517.840820 366.266144,3525.651855 349.914062,3533.086670 
	C328.999969,3542.595459 307.998383,3551.911621 287.046844,3561.338379 
	C258.222412,3574.306885 229.395752,3587.271240 200.626953,3600.362549 
	C198.976532,3601.113525 197.836823,3602.986816 196.225143,3604.976074 
	C191.331924,3607.193848 186.672943,3608.772949 182.622940,3610.145508 
	C181.545761,3609.495605 181.109711,3609.364746 181.092850,3609.192627 
	C181.063919,3608.897705 181.206482,3608.463135 181.432861,3608.283691 
	C708.642334,3189.724609 1235.864868,2771.182129 1763.885864,2352.005615 
	C1924.175293,2483.298096 2084.370605,2614.513184 2245.184570,2746.235352 
	C2247.922363,2738.550781 2250.334961,2732.012207 2252.587891,2725.418945 
	C2277.658691,2652.058350 2302.697754,2578.687256 2327.758789,2505.323486 
	C2349.270264,2442.351562 2370.781982,2379.379639 2392.324463,2316.418457 
	C2418.714355,2239.290771 2445.150391,2162.178955 2471.541016,2085.051758 
	C2493.622803,2020.517456 2515.663818,1955.968994 2537.729736,1891.429199 
	C2559.580322,1827.518433 2581.433838,1763.608643 2603.296631,1699.701904 
	C2629.467529,1623.202271 2655.648193,1546.706055 2681.826660,1470.208862 
	C2703.695557,1406.305298 2725.556641,1342.398926 2747.441895,1278.500854 
	C2766.739502,1222.158081 2786.017334,1165.808350 2805.478027,1109.521851 
	C2806.961670,1105.230835 2809.312256,1101.007202 2812.135498,1097.446533 
	C2860.928711,1035.914429 2909.834229,974.471069 2958.766602,913.049438 
	C3032.788818,820.134216 3106.849854,727.250000 3180.899170,634.356567 
	C3183.336914,631.298340 3185.827881,628.282532 3189.931396,626.034424 
	C3188.075684,632.893372 3186.219971,639.752258 3183.998047,647.285095 
z"/>
<path fill="#72DCBE" opacity="1.000000" stroke="none" 
	d="
M30.253366,3499.212158 
	C37.112892,3492.445557 43.851612,3485.551025 50.856625,3478.938477 
	C66.084343,3464.563477 81.402779,3450.283691 96.768082,3436.055420 
	C114.563072,3419.577637 132.527985,3403.282471 150.267944,3386.746094 
	C163.146027,3374.741455 175.696564,3362.386230 188.544266,3350.348389 
	C201.139893,3338.546387 214.002655,3327.029297 226.608337,3315.237549 
	C239.462906,3303.213623 252.071243,3290.926514 264.926910,3278.903564 
	C278.015503,3266.662598 291.280945,3254.610352 304.455109,3242.460449 
	C310.318634,3237.052734 316.196075,3231.658936 321.984863,3226.171631 
	C345.130737,3204.231934 368.144714,3182.151611 391.402130,3160.331055 
	C409.086395,3143.739258 427.150360,3127.552979 444.883698,3111.012939 
	C458.015167,3098.765137 470.776062,3086.120117 483.900513,3073.864502 
	C501.863403,3057.090332 520.082642,3040.591064 538.061035,3023.833252 
	C550.696655,3012.055664 563.027649,2999.951416 575.652222,2988.162109 
	C588.752991,2975.928467 602.124207,2963.984375 615.227966,2951.753906 
	C627.857483,2939.966064 640.226562,2927.899414 652.838989,2916.093018 
	C665.922668,2903.845459 679.214600,2891.820557 692.315918,2879.591797 
	C704.462402,2868.254639 716.434143,2856.730225 728.562073,2845.372803 
	C742.138855,2832.658203 755.833618,2820.069580 769.424255,2807.369385 
	C781.812378,2795.793213 794.107178,2784.116943 806.484619,2772.529297 
	C820.070374,2759.810303 833.730042,2747.170166 847.308594,2734.443359 
	C859.677734,2722.850342 871.934814,2711.137451 884.326355,2699.568604 
	C897.909485,2686.887451 911.601990,2674.323486 925.222900,2661.682373 
	C931.313477,2656.030029 937.336365,2650.304932 943.406921,2644.631104 
	C963.542053,2625.811768 983.736511,2607.055664 1003.806030,2588.166992 
	C1016.867126,2575.874023 1029.630615,2563.263916 1042.742432,2551.025879 
	C1060.460815,2534.488525 1078.444946,2518.236328 1096.201172,2501.739258 
	C1108.372925,2490.430420 1120.298706,2478.857666 1132.429077,2467.504395 
	C1146.010376,2454.793457 1159.708740,2442.208008 1173.335449,2429.545898 
	C1179.427856,2423.885010 1185.463135,2418.162842 1191.536987,2412.481934 
	C1211.916748,2393.420654 1232.356201,2374.422852 1252.669678,2355.291260 
	C1271.050903,2337.979736 1289.187988,2320.408203 1307.633789,2303.166504 
	C1325.091309,2286.848389 1342.898438,2270.904785 1360.384766,2254.617188 
	C1373.509644,2242.392334 1386.293335,2229.802002 1399.370117,2217.524902 
	C1411.955566,2205.708740 1424.758911,2194.124756 1437.399170,2182.366455 
	C1449.318970,2171.278076 1461.125854,2160.068359 1473.027588,2148.960449 
	C1487.115967,2135.812012 1501.300171,2122.765625 1515.354980,2109.581543 
	C1527.965942,2097.751709 1540.396973,2085.729736 1553.019043,2073.911865 
	C1566.114502,2061.650635 1579.382324,2049.574463 1592.503418,2037.340698 
	C1604.408203,2026.240967 1616.180908,2014.999390 1628.078247,2003.891357 
	C1642.392822,1990.526611 1656.828003,1977.290894 1671.116333,1963.898315 
	C1683.480225,1952.309204 1695.690063,1940.556274 1708.011108,1928.921265 
	C1714.515137,1922.779541 1721.110474,1916.734497 1728.712280,1909.672241 
	C1786.868530,1958.158447 1844.919189,2006.549805 1902.962036,2054.950439 
	C1961.027710,2103.370117 2019.085449,2151.799316 2078.222168,2201.121338 
	C2083.797607,2188.793213 2088.780029,2178.005127 2093.575684,2167.134521 
	C2122.614990,2101.310303 2151.605225,2035.464111 2180.624756,1969.631104 
	C2215.823730,1889.779297 2251.034668,1809.932617 2286.241699,1730.084351 
	C2303.307861,1691.379150 2320.406738,1652.688354 2337.438721,1613.968140 
	C2365.869385,1549.335327 2394.210938,1484.663208 2422.679932,1420.047241 
	C2446.183350,1366.700439 2469.856689,1313.428589 2493.382568,1260.091675 
	C2528.199463,1181.156616 2562.955322,1102.194946 2597.730469,1023.241577 
	C2631.968018,945.507812 2666.181152,867.763123 2700.434570,790.036255 
	C2735.490967,710.486633 2770.597168,630.958923 2805.657227,551.410889 
	C2840.045410,473.387268 2874.391357,395.345062 2908.776367,317.320038 
	C2943.698486,238.076157 2978.645020,158.842957 3013.583008,79.606102 
	C3019.091309,67.113731 3024.612305,54.627102 3030.880859,41.913185 
	C3031.878174,41.918251 3032.122314,42.147942 3032.266602,43.108669 
	C3032.158203,45.320969 3032.149658,46.802231 3032.141113,48.283493 
	C3032.141113,48.283493 3032.062500,49.129612 3031.419922,49.929604 
	C3030.563232,51.910332 3030.349121,53.091061 3030.135254,54.271797 
	C3030.135254,54.271809 3030.054443,55.122250 3029.413086,55.924820 
	C3028.559814,57.907803 3028.347900,59.088211 3028.135742,60.268600 
	C3028.135742,60.268581 3028.050537,61.118896 3027.402344,61.917603 
	C3026.547363,63.899925 3026.340576,65.083542 3026.133789,66.267143 
	C3026.133789,66.267128 3026.047119,67.117081 3025.399658,67.916527 
	C3024.545654,69.899933 3024.339111,71.083893 3024.132568,72.267853 
	C3024.132568,72.267845 3024.047119,73.114471 3023.402344,73.913742 
	C3022.547852,75.895813 3022.338135,77.078606 3022.128662,78.261414 
	C3022.128662,78.261421 3022.040283,79.112297 3021.385742,79.906937 
	C3020.530518,81.887177 3020.329590,83.072777 3020.128418,84.258392 
	C3020.128662,84.258408 3020.040527,85.110802 3019.385742,85.907715 
	C3018.531738,87.893044 3018.332520,89.081451 3018.133301,90.269875 
	C3018.133301,90.269890 3018.047119,91.114250 3017.391113,91.904968 
	C3016.532715,93.882637 3016.330078,95.069588 3016.127686,96.256554 
	C3016.127686,96.256561 3016.039062,97.107948 3015.384766,97.903488 
	C3014.530029,99.885902 3014.329590,101.072777 3014.128906,102.259651 
	C3014.128906,102.259651 3014.041504,103.108185 3013.388184,103.904144 
	C3012.533691,105.888977 3012.332520,107.077858 3012.131348,108.266739 
	C3012.131348,108.266731 3012.043213,109.111778 3011.389404,109.905991 
	C3010.535400,111.889717 3010.335205,113.079224 3010.134766,114.268723 
	C3010.134766,114.268715 3010.049316,115.114502 3009.398193,115.910614 
	C3008.543945,117.894882 3008.340820,119.083038 3008.137451,120.271194 
	C3008.137451,120.271187 3008.046387,121.117294 3007.392578,121.911270 
	C3006.539062,123.893303 3006.339355,125.081367 3006.139648,126.269409 
	C3006.139404,126.269394 3006.050781,127.117310 3005.399414,127.914223 
	C3004.545410,129.898239 3004.342773,131.085358 3004.139893,132.272461 
	C3004.139893,132.272446 3004.050537,133.118774 3003.399414,133.914795 
	C3002.546143,135.897369 3002.343750,137.083939 3002.141113,138.270508 
	C3002.141357,138.270523 3002.050781,139.118744 3001.401367,139.900818 
	C3000.529541,141.844986 3000.307373,143.007080 3000.084961,144.169189 
	C2988.963379,177.646042 2977.864990,211.130600 2966.715088,244.598129 
	C2945.859131,307.199554 2925.006104,369.802032 2904.092773,432.384491 
	C2870.965820,531.517761 2837.806152,630.640137 2804.625732,729.755554 
	C2793.954346,761.633301 2783.183105,793.477661 2772.440918,825.331604 
	C2764.133789,849.964417 2755.717041,874.560425 2747.490967,899.220215 
	C2700.437256,1040.276367 2653.444336,1181.352905 2606.387207,1322.407959 
	C2594.484863,1358.085205 2582.421387,1393.708740 2570.437012,1429.358643 
	C2563.589355,1449.728882 2556.720947,1470.092163 2549.915283,1490.476440 
	C2502.721680,1631.825073 2455.557373,1773.183594 2408.347656,1914.526978 
	C2396.462891,1950.110107 2384.452637,1985.651733 2372.489258,2021.208740 
	C2365.563721,2041.791504 2358.560303,2062.348145 2351.687500,2082.948486 
	C2304.733887,2223.684814 2257.812988,2364.431885 2210.856934,2505.167480 
	C2206.041504,2519.601318 2201.112061,2533.998047 2196.122803,2548.372803 
	C2194.831299,2552.093750 2193.114258,2555.667236 2191.402100,2559.764404 
	C2060.075928,2442.186523 1928.993408,2324.826660 1797.551025,2207.144531 
	C1783.514038,2217.448242 1769.876953,2227.457275 1756.241089,2237.467529 
	C1706.633423,2273.885254 1657.014038,2310.286621 1607.421265,2346.724609 
	C1544.692383,2392.814453 1482.012695,2438.971436 1419.261108,2485.030273 
	C1358.928467,2529.313965 1298.490234,2573.453613 1238.173462,2617.758301 
	C1177.856323,2662.063477 1117.659424,2706.531982 1057.360840,2750.862305 
	C994.648621,2796.966553 931.876831,2842.989990 869.132385,2889.050293 
	C816.571289,2927.634766 764.012634,2966.222656 711.451965,3004.807617 
	C648.712402,3050.864746 585.971558,3096.920166 523.231323,3142.976318 
	C460.482605,3189.038330 397.753174,3235.126709 334.980438,3281.155762 
	C253.691299,3340.762207 172.367752,3400.321777 91.059357,3459.901855 
	C73.088051,3473.070312 55.118114,3486.240723 35.108131,3499.491699 
	C32.130238,3499.453125 31.191813,3499.332520 30.253366,3499.212158 
z"/>
<path fill="#54B9A4" opacity="1.000000" stroke="none" 
	d="
M29.849430,3499.387451 
	C31.191813,3499.332520 32.130238,3499.453125 34.477844,3499.744629 
	C29.020157,3505.141357 22.153280,3510.367188 14.635436,3515.812500 
	C16.067186,3507.659180 24.152409,3504.921631 29.849430,3499.387451 
z"/>
<path fill="#72DCBE" opacity="1.000000" stroke="none" 
	d="
M3033.382080,35.470650 
	C3034.259766,35.124268 3034.667969,35.277020 3035.640869,35.759186 
	C3036.028809,36.943295 3035.852051,37.797981 3035.030029,39.525330 
	C3033.998047,40.953812 3033.924316,41.548416 3034.163818,42.181812 
	C3034.163818,42.181812 3034.010254,42.085041 3033.641113,42.150711 
	C3033.272217,42.216385 3032.366699,42.377632 3032.366699,42.377632 
	C3032.122314,42.147942 3031.878174,41.918251 3031.269287,41.337959 
	C3031.573975,39.314831 3032.243408,37.642311 3033.382080,35.470650 
z"/>
<path fill="#43A897" opacity="1.000000" stroke="none" 
	d="
M3032.266602,43.108669 
	C3032.366699,42.377632 3033.272217,42.216385 3033.729980,42.169327 
	C3033.831055,43.862347 3033.474609,45.602428 3032.629639,47.813004 
	C3032.149658,46.802231 3032.158203,45.320969 3032.266602,43.108669 
z"/>
<path fill="#43A897" opacity="1.000000" stroke="none" 
	d="
M3010.589844,113.851746 
	C3010.335205,113.079224 3010.535400,111.889717 3011.201660,110.287018 
	C3011.459961,111.060806 3011.252197,112.247787 3010.589844,113.851746 
z"/>
<path fill="#43A897" opacity="1.000000" stroke="none" 
	d="
M3030.593262,53.858231 
	C3030.349121,53.091061 3030.563232,51.910332 3031.236084,50.312626 
	C3031.480225,51.078663 3031.265625,52.261669 3030.593262,53.858231 
z"/>
<path fill="#43A897" opacity="1.000000" stroke="none" 
	d="
M3000.560547,143.784851 
	C3000.307373,143.007080 3000.529541,141.844986 3001.212891,140.283447 
	C3001.461182,141.056198 3001.248291,142.228363 3000.560547,143.784851 
z"/>
<path fill="#43A897" opacity="1.000000" stroke="none" 
	d="
M3002.600830,137.858307 
	C3002.343750,137.083939 3002.546143,135.897369 3003.211426,134.296463 
	C3003.469727,135.070129 3003.265137,136.258133 3002.600830,137.858307 
z"/>
<path fill="#43A897" opacity="1.000000" stroke="none" 
	d="
M3004.599121,131.859558 
	C3004.342773,131.085358 3004.545410,129.898239 3005.211426,128.296661 
	C3005.469238,129.070343 3005.263916,130.258499 3004.599121,131.859558 
z"/>
<path fill="#43A897" opacity="1.000000" stroke="none" 
	d="
M3006.597656,125.855957 
	C3006.339355,125.081367 3006.539062,123.893303 3007.204102,122.292648 
	C3007.464600,123.067535 3007.260010,124.255013 3006.597656,125.855957 
z"/>
<path fill="#43A897" opacity="1.000000" stroke="none" 
	d="
M3008.597656,119.858360 
	C3008.340820,119.083038 3008.543945,117.894882 3009.210693,116.292038 
	C3009.468750,117.066742 3009.263184,118.256126 3008.597656,119.858360 
z"/>
<path fill="#43A897" opacity="1.000000" stroke="none" 
	d="
M3028.593750,59.855270 
	C3028.347900,59.088211 3028.559814,57.907803 3029.229980,56.310638 
	C3029.475830,57.076565 3029.263672,58.259247 3028.593750,59.855270 
z"/>
<path fill="#43A897" opacity="1.000000" stroke="none" 
	d="
M3012.588379,107.851776 
	C3012.332520,107.077858 3012.533691,105.888977 3013.200684,104.287209 
	C3013.459473,105.061813 3013.252686,106.249306 3012.588379,107.851776 
z"/>
<path fill="#43A897" opacity="1.000000" stroke="none" 
	d="
M3014.583496,101.844147 
	C3014.329590,101.072777 3014.530029,99.885902 3015.196289,98.287773 
	C3015.454102,99.060562 3015.246094,100.244606 3014.583496,101.844147 
z"/>
<path fill="#43A897" opacity="1.000000" stroke="none" 
	d="
M3016.583008,95.841873 
	C3016.330078,95.069588 3016.532715,93.882637 3017.202393,92.284988 
	C3017.458984,93.058601 3017.248779,94.242905 3016.583008,95.841873 
z"/>
<path fill="#43A897" opacity="1.000000" stroke="none" 
	d="
M3018.587891,89.853531 
	C3018.332520,89.081451 3018.531738,87.893044 3019.196777,86.292191 
	C3019.455811,87.065567 3019.249268,88.251381 3018.587891,89.853531 
z"/>
<path fill="#43A897" opacity="1.000000" stroke="none" 
	d="
M3020.582031,83.842781 
	C3020.329590,83.072777 3020.530518,81.887177 3021.196777,80.290634 
	C3021.453613,81.062202 3021.244629,82.244690 3020.582031,83.842781 
z"/>
<path fill="#43A897" opacity="1.000000" stroke="none" 
	d="
M3022.584473,77.846130 
	C3022.338135,77.078606 3022.547852,75.895813 3023.217773,74.297073 
	C3023.465576,75.064377 3023.252930,76.247620 3022.584473,77.846130 
z"/>
<path fill="#43A897" opacity="1.000000" stroke="none" 
	d="
M3024.588867,71.853096 
	C3024.339111,71.083893 3024.545654,69.899933 3025.213379,68.300941 
	C3025.464600,69.070053 3025.254883,70.254189 3024.588867,71.853096 
z"/>
<path fill="#43A897" opacity="1.000000" stroke="none" 
	d="
M3026.589844,65.852539 
	C3026.340576,65.083542 3026.547363,63.899925 3027.215576,62.301872 
	C3027.466797,63.070934 3027.256348,64.254433 3026.589844,65.852539 
z"/>
<path fill="#43A897" opacity="1.000000" stroke="none" 
	d="
M3034.555176,41.909939 
	C3033.924316,41.548416 3033.998047,40.953812 3034.762695,40.124809 
	C3035.498291,40.492939 3035.433838,41.088421 3034.555176,41.909939 
z"/>
</svg>