<svg version="1.1" id="Layer_1" xmlns="http://www.w3.org/2000/svg" xmlns:xlink="http://www.w3.org/1999/xlink" x="0px" y="0px"
	 width="100%" viewBox="0 0 2048 652" enable-background="new 0 0 2048 652" xml:space="preserve">
<path fill="transparent" opacity="1.000000" stroke="none" 
	d="
M414.000000,653.000000 
	C276.333313,653.000000 138.666641,653.000000 1.000000,653.000000 
	C1.000000,642.893250 1.000000,632.902588 1.354560,622.471558 
	C3.503736,620.026001 5.298351,618.020691 7.397333,616.093994 
	C8.370334,616.053040 9.182569,616.137817 9.686507,615.783691 
	C21.025631,607.816895 32.448154,599.961670 43.619576,591.764648 
	C72.023483,570.923279 100.260498,549.854492 128.661331,529.008911 
	C157.747253,507.660400 186.999100,486.537933 216.085983,465.190704 
	C249.757217,440.479004 283.327728,415.630035 316.986328,390.807922 
	C340.083496,411.478088 363.009003,431.994659 386.280853,452.821136 
	C390.057007,442.751678 393.742432,433.658569 396.868744,424.377136 
	C399.886780,415.417084 402.084686,406.181091 405.092377,397.217163 
	C408.017242,388.500122 411.740936,380.052246 414.707672,371.347778 
	C420.288727,354.973083 425.556335,338.491760 430.993652,322.067810 
	C436.387268,305.775940 441.823120,289.498047 447.251984,273.217865 
	C453.489227,254.513489 459.681000,235.793671 465.999512,217.116745 
	C472.579376,197.667252 479.314697,178.270401 485.925903,158.831436 
	C488.904480,150.073532 491.750122,141.270401 494.650391,132.485916 
	C498.758423,120.043053 502.880157,107.604675 506.962219,95.153290 
	C514.977783,70.703514 522.969971,46.246063 531.226929,21.817936 
	C531.573425,21.552639 531.664856,21.261200 531.837891,20.653282 
	C531.967529,19.903950 532.015503,19.471096 532.391235,18.853428 
	C534.176208,13.771784 535.633423,8.874959 537.041748,3.984320 
	C536.992859,3.990507 537.004761,4.088260 537.290405,3.895067 
	C537.717407,2.801248 537.858704,1.900623 538.000000,0.999999 
	C1041.612061,1.000000 1545.224121,1.000000 2048.917969,1.000000 
	C2048.917969,218.255096 2048.917969,435.510254 2048.917969,653.000000 
	C1505.970703,653.000000 962.941284,653.000000 419.456360,652.593994 
	C420.978912,645.176147 423.051971,638.189392 424.919098,631.148010 
	C434.476837,595.103394 443.914978,559.026855 453.522644,522.995605 
	C463.922668,483.992828 474.518585,445.042267 484.926575,406.041565 
	C494.164032,371.427094 503.261383,336.775238 512.419922,302.139679 
	C518.968628,277.374207 525.492004,252.601974 532.072327,227.844925 
	C537.028198,209.199707 542.076233,190.579010 547.047119,171.937759 
	C552.099731,152.989670 557.108032,134.029755 562.100159,115.071854 
	C562.064575,115.068680 562.068604,115.139946 562.369995,114.963364 
	C562.720215,113.879028 562.769043,112.971283 562.889160,111.709518 
	C561.940552,111.440842 560.417542,111.121513 559.975159,111.671478 
	C551.555359,122.139366 543.290222,132.731400 534.936768,143.253006 
	C525.349976,155.328125 515.619324,167.290131 506.130157,179.441040 
	C501.732910,185.071701 496.255981,190.475662 493.857025,196.942612 
	C484.001129,223.511780 475.098785,250.435867 465.925049,277.256561 
	C457.225342,302.691467 448.683319,328.180328 439.964905,353.608795 
	C430.189636,382.119751 420.269073,410.580872 410.461731,439.080841 
	C405.477692,453.564362 400.603363,468.085602 395.658020,482.652863 
	C367.195801,459.409821 339.139771,436.498535 311.254547,413.726715 
	C263.888397,451.189423 216.924606,488.004395 170.329117,525.279785 
	C123.802139,562.500366 76.758827,599.089844 30.492973,636.635925 
	C30.850500,637.115479 31.208027,637.595032 31.565554,638.074585 
	C32.381268,637.670837 33.196980,637.267029 34.407856,636.918518 
	C63.666836,628.319214 92.532364,619.670288 121.394043,611.008484 
	C158.014236,600.018311 194.632706,589.022339 231.249130,578.019531 
	C252.823883,571.536621 274.382812,565.000488 295.992889,558.637695 
	C297.186859,558.286072 299.093506,558.914734 300.148438,559.746521 
	C316.582306,572.704163 332.966125,585.726135 349.288849,598.823730 
	C368.303406,614.081238 387.288666,629.376038 406.177917,644.787964 
	C409.084076,647.159119 411.407227,650.244751 414.000000,653.000000 
M633.210938,347.307404 
	C633.361206,347.563995 633.547302,347.791199 633.893738,348.920258 
	C633.973328,356.607574 634.052917,364.294922 633.968506,372.909302 
	C633.966980,412.355438 633.950867,451.801605 633.973389,491.247742 
	C633.979492,501.895691 634.102661,512.543579 634.017029,524.090881 
	C634.017029,529.011108 634.017029,533.931335 634.017029,538.614258 
	C653.103943,538.614258 671.500061,538.614258 689.809448,538.614258 
	C689.809448,533.234741 689.809448,528.241272 689.949219,522.288269 
	C689.966064,516.296753 689.992920,510.305267 689.997986,504.313751 
	C690.036926,458.211700 690.071655,412.109650 690.739258,366.233643 
	C692.056458,367.887238 693.376648,369.538452 694.690369,371.194794 
	C702.185852,380.645386 709.701050,390.080414 717.167480,399.553925 
	C723.322754,407.363708 729.375183,415.254730 735.552246,423.046997 
	C745.681885,435.825470 755.889771,448.541870 766.037659,461.305939 
	C773.955444,471.265137 781.837158,481.252991 789.725952,491.235199 
	C799.527649,503.637939 809.139038,516.197144 819.189148,528.395020 
	C824.614502,534.979858 830.779541,541.374634 839.997009,541.879333 
	C849.951416,542.424316 859.959167,542.062988 869.942688,541.977173 
	C874.896057,541.934570 877.890869,538.948181 877.974609,534.030457 
	C878.053772,529.375671 877.898315,524.716919 878.005615,519.126953 
	C878.038757,501.087738 878.071960,483.048492 878.747009,465.292145 
	C883.647217,476.993011 890.844849,487.264923 899.238708,496.608612 
	C909.154907,507.647003 920.369019,517.209717 933.240906,524.836487 
	C952.663574,536.344727 973.800781,542.104614 996.057251,543.880676 
	C1005.352905,544.622559 1014.802795,544.584473 1024.100220,543.853821 
	C1035.133545,542.986694 1046.295410,541.892273 1057.017822,539.305542 
	C1083.036377,533.028748 1104.997314,519.850403 1122.509399,499.174957 
	C1134.678101,484.808258 1143.999023,468.930847 1149.863037,451.221863 
	C1154.336548,437.711609 1157.382080,423.728516 1160.894043,410.587585 
	C1166.106323,427.740387 1171.564575,445.664124 1176.998901,463.595062 
	C1183.988037,486.655334 1191.076050,509.687073 1197.808960,532.822083 
	C1198.817871,536.288757 1200.239502,537.096375 1203.506592,537.065491 
	C1218.336914,536.925171 1233.169189,537.023743 1248.000854,536.994690 
	C1254.345215,536.982239 1259.263306,534.087891 1260.933350,529.147461 
	C1266.003174,514.149597 1271.121338,499.164734 1275.917358,484.078430 
	C1284.048828,458.500885 1291.959229,432.853027 1299.940308,407.227783 
	C1303.788574,394.872345 1307.537354,382.485748 1311.425659,370.142975 
	C1313.763794,362.720703 1316.284058,355.355743 1319.065552,346.925110 
	C1324.359985,365.273987 1329.246460,382.483643 1334.298706,399.644501 
	C1339.776733,418.251007 1345.464844,436.795563 1350.960571,455.396942 
	C1358.014038,479.271759 1364.952515,503.180481 1371.972046,527.065369 
	C1373.981079,533.901306 1377.327515,535.716125 1383.784912,535.884644 
	C1398.273438,536.262756 1412.819458,536.654846 1427.260986,535.747986 
	C1435.372681,535.238647 1436.902222,535.525757 1439.104248,525.835144 
	C1439.745728,523.012268 1440.924927,520.314453 1441.803345,517.542053 
	C1448.197021,497.357849 1454.638672,477.188477 1460.943970,456.976654 
	C1467.347168,436.450836 1473.567993,415.868164 1479.949097,395.335449 
	C1485.898804,376.190399 1491.996094,357.091278 1497.952515,337.948364 
	C1505.618286,313.312500 1513.208618,288.653168 1520.969238,264.931793 
	C1520.973999,295.395844 1520.958984,325.859894 1520.992554,356.323914 
	C1521.008057,370.300171 1521.119385,384.276276 1521.087036,399.139923 
	C1521.116577,420.414551 1521.145996,441.689178 1521.030029,463.897675 
	C1521.074707,474.895752 1521.119263,485.893829 1521.041138,497.465332 
	C1521.080078,497.656860 1521.119141,497.848389 1521.032104,498.965271 
	C1521.081055,506.979706 1521.130005,514.994141 1521.029175,523.931885 
	C1521.029175,528.854614 1521.029175,533.777344 1521.029175,538.705078 
	C1540.297485,538.705078 1558.987793,538.705078 1577.813599,538.705078 
	C1577.813599,533.290222 1577.813599,528.170166 1577.965698,522.117249 
	C1577.988159,470.107269 1578.010742,418.097321 1578.695190,366.266937 
	C1585.611572,375.160461 1592.456665,384.110535 1599.460083,392.934967 
	C1611.460449,408.055176 1623.625610,423.044952 1635.599243,438.186188 
	C1647.556641,453.306824 1659.370972,468.540619 1671.235718,483.734528 
	C1682.896729,498.667755 1694.442017,513.692871 1706.243652,528.513916 
	C1710.910522,534.374695 1715.865479,540.053162 1724.488892,540.029907 
	C1753.814209,539.950989 1783.140137,540.051270 1812.465454,539.969177 
	C1821.462769,539.943970 1828.426270,535.956970 1831.731079,527.469177 
	C1836.489624,515.247803 1841.060303,502.916321 1844.885498,490.379883 
	C1848.123901,479.766388 1850.751709,476.049500 1858.389771,476.030579 
	C1887.548462,475.958344 1916.709473,475.824860 1945.865234,476.132019 
	C1952.724243,476.204254 1955.190308,477.738678 1957.254150,484.482574 
	C1961.564941,498.568390 1966.363647,512.505554 1971.012695,526.486938 
	C1973.829956,534.959595 1979.451416,539.000244 1988.220459,539.000610 
	C2005.549194,539.001343 2022.878052,539.008362 2040.206787,538.987976 
	C2041.760742,538.986145 2043.314453,538.803711 2044.876953,538.704651 
	C2043.179443,533.507446 2041.632446,528.771301 2040.894043,524.006348 
	C2042.195068,523.920776 2043.496216,523.835205 2044.783691,523.750488 
	C2044.783691,523.180603 2044.879150,522.821045 2044.770020,522.541382 
	C2038.248047,505.834351 2031.635986,489.162170 2025.186646,472.427277 
	C2011.296387,436.384186 1997.538940,400.289948 1983.634521,364.252350 
	C1968.791260,325.781158 1953.863647,287.342468 1938.906128,248.915558 
	C1937.238403,244.631088 1934.310059,241.922287 1929.206421,241.956573 
	C1912.042603,242.071930 1894.877686,242.004196 1877.713135,241.998703 
	C1871.007202,241.996567 1866.515381,245.703186 1864.113892,251.399521 
	C1858.796997,264.010956 1853.959961,276.825989 1849.000244,289.586304 
	C1838.429077,316.783539 1827.946777,344.015442 1817.348267,371.202026 
	C1807.281250,397.025360 1797.106934,422.806915 1786.990356,448.610931 
	C1779.874146,466.761566 1772.775635,484.919128 1765.669312,503.073578 
	C1765.432129,503.041473 1765.195068,503.009399 1764.958008,502.977295 
	C1764.958008,416.481445 1764.958008,329.985565 1764.958008,243.315186 
	C1745.776123,243.315186 1727.059326,243.315186 1708.131470,243.315186 
	C1708.131470,248.757599 1708.131470,253.887802 1707.987305,259.944061 
	C1707.966309,312.587738 1707.945312,365.231445 1707.277832,417.689209 
	C1706.525513,416.631989 1705.821289,415.536469 1705.013794,414.523224 
	C1690.500122,396.313629 1675.907227,378.166870 1661.468994,359.897766 
	C1645.721558,339.972168 1630.113647,319.936432 1614.448120,299.946198 
	C1602.421387,284.599365 1590.469727,269.192963 1578.344238,253.924484 
	C1572.689575,246.803986 1565.981201,242.169449 1555.972900,242.824554 
	C1545.028198,243.540955 1533.994019,242.889297 1522.993652,241.990814 
	C1523.418945,238.920609 1521.413086,238.983215 1519.272827,238.986588 
	C1500.948120,239.015564 1482.623291,238.976471 1464.298706,239.021713 
	C1459.331177,239.033981 1455.006470,241.090225 1452.533936,245.261200 
	C1449.870117,249.754852 1447.574463,254.644913 1446.142334,259.654816 
	C1442.852783,271.163696 1440.192017,282.852081 1437.264282,294.464691 
	C1428.477905,329.315887 1419.706055,364.170776 1410.881592,399.012329 
	C1408.862183,406.986084 1406.654785,414.912201 1404.533813,422.860199 
	C1402.751221,420.517181 1401.811768,418.290894 1401.113647,415.991364 
	C1392.193848,386.612640 1383.304932,357.224487 1374.416504,327.836243 
	C1369.906738,312.925476 1365.535889,297.971283 1360.872803,283.108734 
	C1357.434692,272.150726 1353.862793,261.222198 1349.907227,250.443130 
	C1346.684448,241.660721 1343.731201,240.000870 1334.286987,240.000671 
	C1324.291748,240.000458 1314.287476,240.253754 1304.304688,239.900604 
	C1298.802124,239.705963 1294.962524,241.980316 1292.441162,246.340195 
	C1289.978394,250.599075 1287.704712,255.102280 1286.232178,259.776794 
	C1277.498779,287.500336 1269.020874,315.304382 1260.459961,343.082336 
	C1255.919434,357.815979 1251.439575,372.568634 1246.831421,387.281128 
	C1242.859253,399.962433 1238.744507,412.599030 1234.387817,426.207886 
	C1231.094849,413.435486 1228.008423,401.587524 1224.988647,389.722656 
	C1220.295288,371.283203 1215.632324,352.835968 1210.984497,334.384949 
	C1206.615479,317.040192 1202.448120,299.642456 1197.871704,282.352844 
	C1195.102783,271.892273 1192.056885,261.477905 1188.516968,251.256897 
	C1185.528687,242.628326 1180.935181,240.002090 1171.548706,240.001144 
	C1154.223511,239.999405 1136.898315,240.000687 1119.573120,240.000732 
	C1117.813599,240.000748 1116.054199,240.000763 1113.244385,240.000763 
	C1115.019287,245.590240 1116.490845,250.224564 1117.129028,254.974625 
	C1113.963867,254.570435 1113.498779,256.051605 1114.307251,258.746765 
	C1116.331177,265.494171 1118.238525,272.276489 1119.563721,279.543091 
	C1106.336304,268.230011 1091.845215,258.987579 1075.721191,252.297607 
	C1059.185669,245.436905 1042.006836,240.989075 1024.188599,240.163773 
	C1007.531067,239.392227 990.932434,240.100250 974.401489,243.799103 
	C940.311890,251.426788 913.242249,269.480103 892.127869,296.859406 
	C887.185669,303.268127 883.103394,310.340027 877.870422,318.247742 
	C877.870422,292.497711 877.870422,267.880493 877.870422,243.363647 
	C858.221313,243.363647 839.323181,243.363647 820.176392,243.363647 
	C820.176392,248.851074 820.176392,253.978790 820.045410,260.020233 
	C820.030273,265.516205 820.005432,271.012177 820.001465,276.508148 
	C819.967529,323.308289 819.937500,370.108459 819.278381,416.689026 
	C806.025696,400.114105 792.699768,383.597107 779.538574,366.949799 
	C762.503723,345.402863 745.604736,323.748474 728.638733,302.147003 
	C715.228088,285.072174 701.799927,268.011047 688.389587,250.935913 
	C684.263611,245.682358 679.068787,242.786728 672.203735,242.963684 
	C665.547852,243.135239 658.884094,243.000687 652.223755,243.000626 
	C645.959229,243.000580 639.694763,243.000610 633.000427,243.000610 
	C633.000427,245.663818 632.981079,247.632187 633.003357,249.600098 
	C633.313904,277.021698 633.630249,304.443237 633.251770,332.401611 
	C633.181335,337.234344 633.110840,342.067047 633.210938,347.307404 
z"/>
<path fill="transparent" opacity="1.000000" stroke="none" 
	d="
M1.000008,617.000000 
	C1.000000,411.742218 1.000000,206.484436 1.000000,1.000000 
	C178.359100,1.000000 355.718323,1.000000 533.721313,1.338500 
	C533.599487,2.925571 532.970581,4.287451 532.045654,5.404175 
	C526.466736,12.140348 520.779724,18.787086 515.205200,25.526827 
	C506.278931,36.318893 497.451721,47.192966 488.507996,57.970432 
	C481.131897,66.858910 473.598511,75.616852 466.222961,84.505806 
	C455.595093,97.314453 445.079834,110.216515 434.453857,123.026718 
	C427.079620,131.916763 419.550293,140.678146 412.179993,149.571426 
	C403.349182,160.227005 394.671143,171.009369 385.821198,181.648895 
	C376.747345,192.557663 367.473816,203.300598 358.419556,214.225418 
	C348.574036,226.104980 338.880341,238.110352 328.756317,250.506775 
	C323.008301,245.380447 317.654877,240.485718 312.172455,235.740021 
	C297.943268,223.422882 283.581848,211.257431 269.430450,198.852081 
	C263.601654,193.742477 263.886139,193.641556 259.752991,200.524048 
	C252.807922,212.088913 245.649582,223.526001 238.551102,234.998352 
	C224.702591,257.379852 210.818115,279.739136 196.976669,302.125031 
	C178.981766,331.228455 161.037979,360.363495 143.026764,389.456818 
	C130.731033,409.317963 118.296593,429.093384 106.033623,448.974670 
	C88.761505,476.976990 71.602562,505.049103 54.373096,533.077759 
	C39.557316,557.179810 24.768280,581.298828 9.821947,605.319763 
	C7.254796,609.445618 3.959152,613.118103 1.000008,617.000000 
z"/>
<path fill="#008080" opacity="1.000000" stroke="none" 
	d="
M1.000008,617.416626 
	C3.959152,613.118103 7.254796,609.445618 9.821947,605.319763 
	C24.768280,581.298828 39.557316,557.179810 54.373096,533.077759 
	C71.602562,505.049103 88.761505,476.976990 106.033623,448.974670 
	C118.296593,429.093384 130.731033,409.317963 143.026764,389.456818 
	C161.037979,360.363495 178.981766,331.228455 196.976669,302.125031 
	C210.818115,279.739136 224.702591,257.379852 238.551102,234.998352 
	C245.649582,223.526001 252.807922,212.088913 259.752991,200.524048 
	C263.886139,193.641556 263.601654,193.742477 269.430450,198.852081 
	C283.581848,211.257431 297.943268,223.422882 312.172455,235.740021 
	C317.654877,240.485718 323.008301,245.380447 328.756317,250.506775 
	C338.880341,238.110352 348.574036,226.104980 358.419556,214.225418 
	C367.473816,203.300598 376.747345,192.557663 385.821198,181.648895 
	C394.671143,171.009369 403.349182,160.227005 412.179993,149.571426 
	C419.550293,140.678146 427.079620,131.916763 434.453857,123.026718 
	C445.079834,110.216515 455.595093,97.314453 466.222961,84.505806 
	C473.598511,75.616852 481.131897,66.858910 488.507996,57.970432 
	C497.451721,47.192966 506.278931,36.318893 515.205200,25.526827 
	C520.779724,18.787086 526.466736,12.140348 532.045654,5.404175 
	C532.970581,4.287451 533.599487,2.925571 534.182617,1.338500 
	C534.750000,1.000000 535.500000,1.000000 536.694153,1.382276 
	C537.093750,2.539121 537.049255,3.313690 537.004761,4.088260 
	C537.004761,4.088260 536.992859,3.990507 536.724609,4.129188 
	C534.187073,9.100557 531.917786,13.933246 529.441284,19.044874 
	C527.511353,23.276222 525.802002,27.234585 524.063782,31.180182 
	C476.181458,139.868515 428.297913,248.556290 380.408386,357.241425 
	C375.927307,367.411285 371.404663,377.562805 366.606537,388.387878 
	C345.777832,371.048615 325.487061,354.157135 305.109436,337.193359 
	C303.612549,338.476135 302.452087,339.397217 301.373413,340.405792 
	C281.782288,358.724304 262.204620,377.057220 242.616867,395.379395 
	C169.621506,463.658569 96.619843,531.931091 23.633799,600.220276 
	C18.067181,605.428650 12.604145,610.747742 7.092967,616.015381 
	C5.298351,618.020691 3.503736,620.026001 1.354560,622.015625 
	C1.000000,620.611084 1.000000,619.222229 1.000008,617.416626 
z"/>
<path fill="#F3951B" opacity="1.000000" stroke="none" 
	d="
M562.135742,115.075027 
	C557.108032,134.029755 552.099731,152.989670 547.047119,171.937759 
	C542.076233,190.579010 537.028198,209.199707 532.072327,227.844925 
	C525.492004,252.601974 518.968628,277.374207 512.419922,302.139679 
	C503.261383,336.775238 494.164032,371.427094 484.926575,406.041565 
	C474.518585,445.042267 463.922668,483.992828 453.522644,522.995605 
	C443.914978,559.026855 434.476837,595.103394 424.919098,631.148010 
	C423.051971,638.189392 420.978912,645.176147 419.000427,652.593994 
	C417.611115,653.000000 416.222198,653.000000 414.416656,653.000000 
	C411.407227,650.244751 409.084076,647.159119 406.177917,644.787964 
	C387.288666,629.376038 368.303406,614.081238 349.288849,598.823730 
	C332.966125,585.726135 316.582306,572.704163 300.148438,559.746521 
	C299.093506,558.914734 297.186859,558.286072 295.992889,558.637695 
	C274.382812,565.000488 252.823883,571.536621 231.249130,578.019531 
	C194.632706,589.022339 158.014236,600.018311 121.394043,611.008484 
	C92.532364,619.670288 63.666836,628.319214 34.599865,636.642578 
	C38.842186,634.085388 43.222893,631.717285 47.743862,629.656982 
	C73.644096,617.853516 99.559570,606.083191 125.504501,594.378296 
	C157.668991,579.867554 189.878769,565.457214 222.047241,550.955322 
	C247.085144,539.668030 272.056030,528.230530 297.174225,517.125549 
	C299.154755,516.249878 302.700684,516.572205 304.432739,517.831726 
	C327.308807,534.467163 349.987335,551.374207 372.721222,568.205261 
	C379.754913,573.412598 386.806458,578.595825 394.222687,584.065125 
	C395.070557,582.272522 395.726776,581.147705 396.154907,579.941956 
	C414.538574,528.172791 432.911285,476.399750 451.265015,424.619965 
	C466.502686,381.631134 481.730530,338.638824 496.934814,295.638184 
	C516.916321,239.126709 536.846252,182.596924 556.890137,126.107567 
	C558.244629,122.290222 560.369263,118.746178 562.135742,115.075027 
z"/>
<path fill="#55C5AF" opacity="1.000000" stroke="none" 
	d="
M537.290405,3.895066 
	C537.049255,3.313690 537.093750,2.539121 537.069153,1.382276 
	C537.000000,1.000000 537.500000,1.000000 537.750000,0.999999 
	C537.858704,1.900623 537.717407,2.801248 537.290405,3.895066 
z"/>
<path fill="#008080" opacity="1.000000" stroke="none" 
	d="
M633.945190,331.864777 
	C633.630249,304.443237 633.313904,277.021698 633.003357,249.600098 
	C632.981079,247.632187 633.000427,245.663818 633.000427,243.000610 
	C639.694763,243.000610 645.959229,243.000580 652.223755,243.000626 
	C658.884094,243.000687 665.547852,243.135239 672.203735,242.963684 
	C679.068787,242.786728 684.263611,245.682358 688.389587,250.935913 
	C701.799927,268.011047 715.228088,285.072174 728.638733,302.147003 
	C745.604736,323.748474 762.503723,345.402863 779.538574,366.949799 
	C792.699768,383.597107 806.025696,400.114105 819.701294,417.012268 
	C820.259949,417.422821 820.404419,417.589508 820.528992,417.575836 
	C820.662537,417.561157 820.877014,417.383514 820.885010,417.265442 
	C820.952209,416.270935 821.014771,415.273743 821.014893,414.277374 
	C821.019897,364.163361 821.026428,314.049347 820.982605,263.935364 
	C820.981201,262.325500 820.456909,260.716095 820.176392,259.106506 
	C820.176392,253.978790 820.176392,248.851074 820.176392,243.363647 
	C839.323181,243.363647 858.221313,243.363647 877.870422,243.363647 
	C877.870422,267.880493 877.870422,292.497711 877.870422,318.247742 
	C883.103394,310.340027 887.185669,303.268127 892.127869,296.859406 
	C913.242249,269.480103 940.311890,251.426788 974.401489,243.799103 
	C990.932434,240.100250 1007.531067,239.392227 1024.188599,240.163773 
	C1042.006836,240.989075 1059.185669,245.436905 1075.721191,252.297607 
	C1091.845215,258.987579 1106.336304,268.230011 1119.828369,279.294373 
	C1120.093140,279.045685 1120.084229,278.946045 1119.783203,279.154114 
	C1119.936523,279.895142 1120.390747,280.428131 1120.995850,281.271973 
	C1123.504761,284.471680 1125.862915,287.360474 1128.221069,290.249268 
	C1128.830688,288.241180 1128.651001,286.655792 1128.202271,285.150635 
	C1125.702759,276.766693 1123.194214,268.384399 1120.551636,260.044983 
	C1119.975098,258.225494 1118.840210,256.582947 1117.962402,254.858902 
	C1116.490845,250.224564 1115.019287,245.590240 1113.244385,240.000763 
	C1116.054199,240.000763 1117.813599,240.000748 1119.573120,240.000732 
	C1136.898315,240.000687 1154.223511,239.999405 1171.548706,240.001144 
	C1180.935181,240.002090 1185.528687,242.628326 1188.516968,251.256897 
	C1192.056885,261.477905 1195.102783,271.892273 1197.871704,282.352844 
	C1202.448120,299.642456 1206.615479,317.040192 1210.984497,334.384949 
	C1215.632324,352.835968 1220.295288,371.283203 1224.988647,389.722656 
	C1228.008423,401.587524 1231.094849,413.435486 1234.387817,426.207886 
	C1238.744507,412.599030 1242.859253,399.962433 1246.831421,387.281128 
	C1251.439575,372.568634 1255.919434,357.815979 1260.459961,343.082336 
	C1269.020874,315.304382 1277.498779,287.500336 1286.232178,259.776794 
	C1287.704712,255.102280 1289.978394,250.599075 1292.441162,246.340195 
	C1294.962524,241.980316 1298.802124,239.705963 1304.304688,239.900604 
	C1314.287476,240.253754 1324.291748,240.000458 1334.286987,240.000671 
	C1343.731201,240.000870 1346.684448,241.660721 1349.907227,250.443130 
	C1353.862793,261.222198 1357.434692,272.150726 1360.872803,283.108734 
	C1365.535889,297.971283 1369.906738,312.925476 1374.416504,327.836243 
	C1383.304932,357.224487 1392.193848,386.612640 1401.113647,415.991364 
	C1401.811768,418.290894 1402.751221,420.517181 1404.533813,422.860199 
	C1406.654785,414.912201 1408.862183,406.986084 1410.881592,399.012329 
	C1419.706055,364.170776 1428.477905,329.315887 1437.264282,294.464691 
	C1440.192017,282.852081 1442.852783,271.163696 1446.142334,259.654816 
	C1447.574463,254.644913 1449.870117,249.754852 1452.533936,245.261200 
	C1455.006470,241.090225 1459.331177,239.033981 1464.298706,239.021713 
	C1482.623291,238.976471 1500.948120,239.015564 1519.272827,238.986588 
	C1521.413086,238.983215 1523.418945,238.920609 1522.654541,242.592865 
	C1521.597656,246.462067 1520.879639,249.729218 1519.970215,253.293274 
	C1518.576904,255.505707 1516.905273,257.272797 1516.245483,259.359711 
	C1509.488647,280.733673 1502.899292,302.160583 1496.256104,323.570526 
	C1485.898560,356.951935 1475.529663,390.329895 1465.176758,423.712769 
	C1456.256836,452.475159 1447.357544,481.244049 1438.437622,510.006470 
	C1435.881348,518.248962 1433.878418,519.703796 1425.128418,519.753906 
	C1413.130615,519.822693 1401.132812,519.861023 1389.135132,519.945312 
	C1377.316040,520.028381 1374.356323,517.767273 1371.069580,506.362061 
	C1366.805664,491.566223 1362.506226,476.780121 1358.124146,462.018921 
	C1350.509277,436.368225 1342.722290,410.768250 1335.195801,385.091827 
	C1330.374878,368.645660 1325.905884,352.096436 1321.235107,335.605927 
	C1320.785278,334.018005 1320.022095,332.518829 1318.994263,329.955963 
	C1317.938843,332.196716 1317.344238,333.176941 1316.997559,334.238190 
	C1311.676270,350.527832 1306.267578,366.790375 1301.120239,383.135162 
	C1294.429810,404.380463 1288.058960,425.726440 1281.354492,446.967163 
	C1274.587280,468.405853 1267.531250,489.753174 1260.705688,511.173645 
	C1258.348022,518.572327 1253.093994,521.120605 1245.819092,521.058777 
	C1233.320557,520.952576 1220.820068,521.082764 1208.321533,520.973877 
	C1198.509277,520.888367 1200.461914,522.440125 1197.627808,513.104614 
	C1185.821777,474.214417 1174.088745,435.302032 1162.289185,396.409821 
	C1161.834229,394.910339 1160.973267,393.534088 1160.270874,392.035095 
	C1156.751465,406.007904 1154.267822,419.656067 1149.859497,432.651367 
	C1137.369141,469.471527 1115.339722,498.550751 1079.239014,515.380798 
	C1058.605469,525.000061 1036.584961,528.342773 1014.110840,528.723206 
	C993.585022,529.070801 973.449890,526.244568 954.206116,518.576660 
	C921.759155,505.647888 897.454773,483.692993 881.165466,452.812073 
	C880.418823,451.396637 879.271667,450.192474 878.311035,448.889893 
	C877.764771,449.085724 877.218506,449.281555 876.672302,449.477356 
	C877.149902,454.654663 877.627502,459.831970 878.105103,465.009277 
	C878.071960,483.048492 878.038757,501.087738 877.668091,519.808105 
	C875.619995,524.562805 872.388062,526.028076 868.166260,525.998230 
	C861.003845,525.947632 853.800659,525.519958 846.688110,526.120911 
	C837.900940,526.863403 831.119568,523.449463 825.204346,517.584290 
	C822.136108,514.542114 819.123962,511.397217 816.447266,508.013306 
	C775.429626,456.158173 734.473755,404.254150 693.485596,352.375702 
	C692.531921,351.168640 691.370117,350.126038 690.305420,349.006683 
	C689.758850,349.194763 689.212280,349.382843 688.665710,349.570923 
	C689.146362,355.049805 689.627014,360.528717 690.107666,366.007599 
	C690.071655,412.109650 690.036926,458.211700 689.997986,504.313751 
	C689.992920,510.305267 689.966064,516.296753 689.422119,522.779907 
	C670.921692,523.203674 652.948486,523.135681 634.978027,522.593811 
	C634.952576,472.049957 634.924316,421.980042 634.907471,371.450012 
	C634.951965,359.855469 635.035889,348.720703 634.968933,337.586884 
	C634.957458,335.677521 634.302795,333.772034 633.945190,331.864777 
M1090.965454,377.136658 
	C1089.966553,370.096680 1089.552734,362.913025 1087.865234,356.042206 
	C1081.361816,329.564301 1067.563477,308.781799 1040.884766,298.861847 
	C1029.661987,294.688843 1017.838074,294.597107 1006.049316,295.003021 
	C984.560181,295.742920 966.225281,303.595856 952.122681,320.049957 
	C937.019592,337.671448 932.207031,359.002686 931.080994,381.491364 
	C931.020935,382.690704 931.698181,383.926910 932.011902,385.990723 
	C932.683472,392.352722 932.962891,398.785675 934.099304,405.063538 
	C937.648010,424.666534 945.112488,442.098541 960.884705,455.467529 
	C972.323792,465.163605 985.514648,471.580811 999.755005,473.488007 
	C1013.244629,475.294586 1027.189209,475.502899 1040.797363,469.819092 
	C1058.670288,462.353973 1071.317017,449.906311 1079.650391,433.164459 
	C1086.328491,419.748108 1089.809814,405.144135 1090.620239,389.276031 
	C1090.711304,385.521271 1090.802368,381.766541 1090.965454,377.136658 
z"/>
<path fill="#D76E10" opacity="1.000000" stroke="none" 
	d="
M1520.161621,252.996384 
	C1520.879639,249.729218 1521.597656,246.462067 1522.657227,243.014404 
	C1533.994019,242.889297 1545.028198,243.540955 1555.972900,242.824554 
	C1565.981201,242.169449 1572.689575,246.803986 1578.344238,253.924484 
	C1590.469727,269.192963 1602.421387,284.599365 1614.448120,299.946198 
	C1630.113647,319.936432 1645.721558,339.972168 1661.468994,359.897766 
	C1675.907227,378.166870 1690.500122,396.313629 1705.013794,414.523224 
	C1705.821289,415.536469 1706.525513,416.631989 1707.703979,417.988220 
	C1708.268921,418.361542 1708.421509,418.511871 1708.542603,418.489716 
	C1708.674683,418.465607 1708.870972,418.287384 1708.878296,418.166351 
	C1708.940063,417.171204 1708.995361,416.173706 1708.995483,415.176941 
	C1709.003418,364.732300 1709.013794,314.287628 1708.971558,263.843018 
	C1708.970093,262.234436 1708.423828,260.626312 1708.131470,259.018005 
	C1708.131470,253.887802 1708.131470,248.757599 1708.131470,243.315186 
	C1727.059326,243.315186 1745.776123,243.315186 1764.958008,243.315186 
	C1764.958008,329.985565 1764.958008,416.481445 1764.958008,502.977295 
	C1765.195068,503.009399 1765.432129,503.041473 1765.669312,503.073578 
	C1772.775635,484.919128 1779.874146,466.761566 1786.990356,448.610931 
	C1797.106934,422.806915 1807.281250,397.025360 1817.348267,371.202026 
	C1827.946777,344.015442 1838.429077,316.783539 1849.000244,289.586304 
	C1853.959961,276.825989 1858.796997,264.010956 1864.113892,251.399521 
	C1866.515381,245.703186 1871.007202,241.996567 1877.713135,241.998703 
	C1894.877686,242.004196 1912.042603,242.071930 1929.206421,241.956573 
	C1934.310059,241.922287 1937.238403,244.631088 1938.906128,248.915558 
	C1953.863647,287.342468 1968.791260,325.781158 1983.634521,364.252350 
	C1997.538940,400.289948 2011.296387,436.384186 2025.186646,472.427277 
	C2031.635986,489.162170 2038.248047,505.834351 2044.770020,522.541382 
	C2044.879150,522.821045 2044.783691,523.180603 2044.783691,523.750488 
	C2043.496216,523.835205 2042.195068,523.920776 2040.074829,523.937012 
	C2036.788696,523.585388 2034.323120,523.072144 2031.854736,523.059082 
	C2017.694824,522.984009 2003.534058,523.023804 1989.373657,523.032410 
	C1980.598633,523.037720 1974.852417,519.018005 1972.102417,510.794617 
	C1967.828857,498.015869 1963.205078,485.334320 1959.503052,472.390411 
	C1956.302246,461.198792 1955.000977,460.308899 1942.460083,460.154297 
	C1914.809814,459.813354 1887.152344,460.034515 1859.497803,460.056488 
	C1850.808472,460.063385 1847.806519,462.661102 1845.180176,470.992889 
	C1841.531128,482.569794 1837.787720,494.133209 1833.560547,505.507629 
	C1828.062256,520.302979 1822.300049,523.999573 1806.544678,524.000488 
	C1781.555664,524.002014 1756.548340,523.444397 1731.585815,524.257019 
	C1720.543335,524.616516 1713.177124,520.219971 1706.884766,512.234070 
	C1684.444092,483.754059 1661.994629,455.280823 1639.569824,426.788300 
	C1621.671753,404.047485 1603.811401,381.276947 1585.915771,358.534149 
	C1583.337646,355.257568 1580.655762,352.062561 1578.021851,348.829834 
	C1577.540894,349.016754 1577.059814,349.203674 1576.578857,349.390594 
	C1577.063599,354.956177 1577.548462,360.521759 1578.033325,366.087341 
	C1578.010742,418.097321 1577.988159,470.107269 1577.432861,522.584717 
	C1558.581909,523.034424 1540.263550,523.016663 1521.958618,522.530396 
	C1521.700684,514.054565 1521.429321,506.047272 1521.158081,498.039948 
	C1521.119141,497.848389 1521.080078,497.656860 1521.322754,496.838257 
	C1521.691284,485.121948 1521.778320,474.032745 1521.907837,462.480103 
	C1521.998535,442.543030 1522.070679,423.069366 1522.055054,403.595795 
	C1522.053589,401.814453 1521.489990,400.033569 1521.187378,398.252472 
	C1521.119385,384.276276 1521.008057,370.300171 1520.992554,356.323914 
	C1520.958984,325.859894 1520.973999,295.395844 1520.968506,264.020203 
	C1520.699219,259.737885 1520.430420,256.367126 1520.161621,252.996384 
M1871.004150,416.997162 
	C1891.976685,416.990082 1912.949341,416.982971 1934.631836,417.249817 
	C1940.212524,418.278992 1940.715332,417.670807 1938.783325,411.866028 
	C1928.012573,379.503937 1917.216919,347.150116 1906.433838,314.792084 
	C1905.105713,310.806702 1903.802612,306.813019 1902.276855,302.183014 
	C1901.516968,303.379364 1901.174438,303.740326 1901.032104,304.167908 
	C1889.056641,340.129761 1877.080566,376.091492 1865.188965,412.081085 
	C1864.663940,413.669800 1864.918945,415.516205 1864.810669,417.242615 
	C1866.565918,417.156158 1868.321167,417.069733 1871.004150,416.997162 
z"/>
<path fill="#D76E10" opacity="1.000000" stroke="none" 
	d="
M562.100159,115.071854 
	C560.369263,118.746178 558.244629,122.290222 556.890137,126.107567 
	C536.846252,182.596924 516.916321,239.126709 496.934814,295.638184 
	C481.730530,338.638824 466.502686,381.631134 451.265015,424.619965 
	C432.911285,476.399750 414.538574,528.172791 396.154907,579.941956 
	C395.726776,581.147705 395.070557,582.272522 394.222687,584.065125 
	C386.806458,578.595825 379.754913,573.412598 372.721222,568.205261 
	C349.987335,551.374207 327.308807,534.467163 304.432739,517.831726 
	C302.700684,516.572205 299.154755,516.249878 297.174225,517.125549 
	C272.056030,528.230530 247.085144,539.668030 222.047241,550.955322 
	C189.878769,565.457214 157.668991,579.867554 125.504501,594.378296 
	C99.559570,606.083191 73.644096,617.853516 47.743862,629.656982 
	C43.222893,631.717285 38.842186,634.085388 34.204700,636.587280 
	C33.196980,637.267029 32.381268,637.670837 31.565554,638.074585 
	C31.208027,637.595032 30.850500,637.115479 30.492973,636.635925 
	C76.758827,599.089844 123.802139,562.500366 170.329117,525.279785 
	C216.924606,488.004395 263.888397,451.189423 311.254547,413.726715 
	C339.139771,436.498535 367.195801,459.409821 395.658020,482.652863 
	C400.603363,468.085602 405.477692,453.564362 410.461731,439.080841 
	C420.269073,410.580872 430.189636,382.119751 439.964905,353.608795 
	C448.683319,328.180328 457.225342,302.691467 465.925049,277.256561 
	C475.098785,250.435867 484.001129,223.511780 493.857025,196.942612 
	C496.255981,190.475662 501.732910,185.071701 506.130157,179.441040 
	C515.619324,167.290131 525.349976,155.328125 534.936768,143.253006 
	C543.290222,132.731400 551.555359,122.139366 559.975159,111.671478 
	C560.417542,111.121513 561.940552,111.440842 562.711731,111.981461 
	C562.331482,113.451599 562.200073,114.295776 562.068604,115.139946 
	C562.068604,115.139946 562.064575,115.068680 562.100159,115.071854 
z"/>
<path fill="#71DBBE" opacity="1.000000" stroke="none" 
	d="
M7.397333,616.093994 
	C12.604145,610.747742 18.067181,605.428650 23.633799,600.220276 
	C96.619843,531.931091 169.621506,463.658569 242.616867,395.379395 
	C262.204620,377.057220 281.782288,358.724304 301.373413,340.405792 
	C302.452087,339.397217 303.612549,338.476135 305.109436,337.193359 
	C325.487061,354.157135 345.777832,371.048615 366.606537,388.387878 
	C371.404663,377.562805 375.927307,367.411285 380.408386,357.241425 
	C428.297913,248.556290 476.181458,139.868515 524.063782,31.180182 
	C525.802002,27.234585 527.511353,23.276222 529.844238,19.092833 
	C530.990662,18.920649 531.527100,18.979445 532.063477,19.038242 
	C532.015503,19.471096 531.967529,19.903950 531.667114,20.748024 
	C531.208191,21.328873 531.060547,21.539722 530.971802,21.791794 
	C522.969971,46.246063 514.977783,70.703514 506.962219,95.153290 
	C502.880157,107.604675 498.758423,120.043053 494.650391,132.485916 
	C491.750122,141.270401 488.904480,150.073532 485.925903,158.831436 
	C479.314697,178.270401 472.579376,197.667252 465.999512,217.116745 
	C459.681000,235.793671 453.489227,254.513489 447.251984,273.217865 
	C441.823120,289.498047 436.387268,305.775940 430.993652,322.067810 
	C425.556335,338.491760 420.288727,354.973083 414.707672,371.347778 
	C411.740936,380.052246 408.017242,388.500122 405.092377,397.217163 
	C402.084686,406.181091 399.886780,415.417084 396.868744,424.377136 
	C393.742432,433.658569 390.057007,442.751678 386.280853,452.821136 
	C363.009003,431.994659 340.083496,411.478088 316.986328,390.807922 
	C283.327728,415.630035 249.757217,440.479004 216.085983,465.190704 
	C186.999100,486.537933 157.747253,507.660400 128.661331,529.008911 
	C100.260498,549.854492 72.023483,570.923279 43.619576,591.764648 
	C32.448154,599.961670 21.025631,607.816895 9.686507,615.783691 
	C9.182569,616.137817 8.370334,616.053040 7.397333,616.093994 
z"/>
<path fill="#71DBBE" opacity="1.000000" stroke="none" 
	d="
M1519.970215,253.293274 
	C1520.430420,256.367126 1520.699219,259.737885 1520.899658,263.556274 
	C1513.208618,288.653168 1505.618286,313.312500 1497.952515,337.948364 
	C1491.996094,357.091278 1485.898804,376.190399 1479.949097,395.335449 
	C1473.567993,415.868164 1467.347168,436.450836 1460.943970,456.976654 
	C1454.638672,477.188477 1448.197021,497.357849 1441.803345,517.542053 
	C1440.924927,520.314453 1439.745728,523.012268 1439.104248,525.835144 
	C1436.902222,535.525757 1435.372681,535.238647 1427.260986,535.747986 
	C1412.819458,536.654846 1398.273438,536.262756 1383.784912,535.884644 
	C1377.327515,535.716125 1373.981079,533.901306 1371.972046,527.065369 
	C1364.952515,503.180481 1358.014038,479.271759 1350.960571,455.396942 
	C1345.464844,436.795563 1339.776733,418.251007 1334.298706,399.644501 
	C1329.246460,382.483643 1324.359985,365.273987 1319.065552,346.925110 
	C1316.284058,355.355743 1313.763794,362.720703 1311.425659,370.142975 
	C1307.537354,382.485748 1303.788574,394.872345 1299.940308,407.227783 
	C1291.959229,432.853027 1284.048828,458.500885 1275.917358,484.078430 
	C1271.121338,499.164734 1266.003174,514.149597 1260.933350,529.147461 
	C1259.263306,534.087891 1254.345215,536.982239 1248.000854,536.994690 
	C1233.169189,537.023743 1218.336914,536.925171 1203.506592,537.065491 
	C1200.239502,537.096375 1198.817871,536.288757 1197.808960,532.822083 
	C1191.076050,509.687073 1183.988037,486.655334 1176.998901,463.595062 
	C1171.564575,445.664124 1166.106323,427.740387 1160.894043,410.587585 
	C1157.382080,423.728516 1154.336548,437.711609 1149.863037,451.221863 
	C1143.999023,468.930847 1134.678101,484.808258 1122.509399,499.174957 
	C1104.997314,519.850403 1083.036377,533.028748 1057.017822,539.305542 
	C1046.295410,541.892273 1035.133545,542.986694 1024.100220,543.853821 
	C1014.802795,544.584473 1005.352905,544.622559 996.057251,543.880676 
	C973.800781,542.104614 952.663574,536.344727 933.240906,524.836487 
	C920.369019,517.209717 909.154907,507.647003 899.238708,496.608612 
	C890.844849,487.264923 883.647217,476.993011 878.426025,465.150696 
	C877.627502,459.831970 877.149902,454.654663 876.672302,449.477356 
	C877.218506,449.281555 877.764771,449.085724 878.311035,448.889893 
	C879.271667,450.192474 880.418823,451.396637 881.165466,452.812073 
	C897.454773,483.692993 921.759155,505.647888 954.206116,518.576660 
	C973.449890,526.244568 993.585022,529.070801 1014.110840,528.723206 
	C1036.584961,528.342773 1058.605469,525.000061 1079.239014,515.380798 
	C1115.339722,498.550751 1137.369141,469.471527 1149.859497,432.651367 
	C1154.267822,419.656067 1156.751465,406.007904 1160.270874,392.035095 
	C1160.973267,393.534088 1161.834229,394.910339 1162.289185,396.409821 
	C1174.088745,435.302032 1185.821777,474.214417 1197.627808,513.104614 
	C1200.461914,522.440125 1198.509277,520.888367 1208.321533,520.973877 
	C1220.820068,521.082764 1233.320557,520.952576 1245.819092,521.058777 
	C1253.093994,521.120605 1258.348022,518.572327 1260.705688,511.173645 
	C1267.531250,489.753174 1274.587280,468.405853 1281.354492,446.967163 
	C1288.058960,425.726440 1294.429810,404.380463 1301.120239,383.135162 
	C1306.267578,366.790375 1311.676270,350.527832 1316.997559,334.238190 
	C1317.344238,333.176941 1317.938843,332.196716 1318.994263,329.955963 
	C1320.022095,332.518829 1320.785278,334.018005 1321.235107,335.605927 
	C1325.905884,352.096436 1330.374878,368.645660 1335.195801,385.091827 
	C1342.722290,410.768250 1350.509277,436.368225 1358.124146,462.018921 
	C1362.506226,476.780121 1366.805664,491.566223 1371.069580,506.362061 
	C1374.356323,517.767273 1377.316040,520.028381 1389.135132,519.945312 
	C1401.132812,519.861023 1413.130615,519.822693 1425.128418,519.753906 
	C1433.878418,519.703796 1435.881348,518.248962 1438.437622,510.006470 
	C1447.357544,481.244049 1456.256836,452.475159 1465.176758,423.712769 
	C1475.529663,390.329895 1485.898560,356.951935 1496.256104,323.570526 
	C1502.899292,302.160583 1509.488647,280.733673 1516.245483,259.359711 
	C1516.905273,257.272797 1518.576904,255.505707 1519.970215,253.293274 
z"/>
<path fill="#F3951B" opacity="1.000000" stroke="none" 
	d="
M1578.364258,366.177124 
	C1577.548462,360.521759 1577.063599,354.956177 1576.578857,349.390594 
	C1577.059814,349.203674 1577.540894,349.016754 1578.021851,348.829834 
	C1580.655762,352.062561 1583.337646,355.257568 1585.915771,358.534149 
	C1603.811401,381.276947 1621.671753,404.047485 1639.569824,426.788300 
	C1661.994629,455.280823 1684.444092,483.754059 1706.884766,512.234070 
	C1713.177124,520.219971 1720.543335,524.616516 1731.585815,524.257019 
	C1756.548340,523.444397 1781.555664,524.002014 1806.544678,524.000488 
	C1822.300049,523.999573 1828.062256,520.302979 1833.560547,505.507629 
	C1837.787720,494.133209 1841.531128,482.569794 1845.180176,470.992889 
	C1847.806519,462.661102 1850.808472,460.063385 1859.497803,460.056488 
	C1887.152344,460.034515 1914.809814,459.813354 1942.460083,460.154297 
	C1955.000977,460.308899 1956.302246,461.198792 1959.503052,472.390411 
	C1963.205078,485.334320 1967.828857,498.015869 1972.102417,510.794617 
	C1974.852417,519.018005 1980.598633,523.037720 1989.373657,523.032410 
	C2003.534058,523.023804 2017.694824,522.984009 2031.854736,523.059082 
	C2034.323120,523.072144 2036.788696,523.585388 2039.670654,523.951416 
	C2041.632446,528.771301 2043.179443,533.507446 2044.876953,538.704651 
	C2043.314453,538.803711 2041.760742,538.986145 2040.206787,538.987976 
	C2022.878052,539.008362 2005.549194,539.001343 1988.220459,539.000610 
	C1979.451416,539.000244 1973.829956,534.959595 1971.012695,526.486938 
	C1966.363647,512.505554 1961.564941,498.568390 1957.254150,484.482574 
	C1955.190308,477.738678 1952.724243,476.204254 1945.865234,476.132019 
	C1916.709473,475.824860 1887.548462,475.958344 1858.389771,476.030579 
	C1850.751709,476.049500 1848.123901,479.766388 1844.885498,490.379883 
	C1841.060303,502.916321 1836.489624,515.247803 1831.731079,527.469177 
	C1828.426270,535.956970 1821.462769,539.943970 1812.465454,539.969177 
	C1783.140137,540.051270 1753.814209,539.950989 1724.488892,540.029907 
	C1715.865479,540.053162 1710.910522,534.374695 1706.243652,528.513916 
	C1694.442017,513.692871 1682.896729,498.667755 1671.235718,483.734528 
	C1659.370972,468.540619 1647.556641,453.306824 1635.599243,438.186188 
	C1623.625610,423.044952 1611.460449,408.055176 1599.460083,392.934967 
	C1592.456665,384.110535 1585.611572,375.160461 1578.364258,366.177124 
z"/>
<path fill="#71DCBE" opacity="1.000000" stroke="none" 
	d="
M690.423462,366.120605 
	C689.627014,360.528717 689.146362,355.049805 688.665710,349.570923 
	C689.212280,349.382843 689.758850,349.194763 690.305420,349.006683 
	C691.370117,350.126038 692.531921,351.168640 693.485596,352.375702 
	C734.473755,404.254150 775.429626,456.158173 816.447266,508.013306 
	C819.123962,511.397217 822.136108,514.542114 825.204346,517.584290 
	C831.119568,523.449463 837.900940,526.863403 846.688110,526.120911 
	C853.800659,525.519958 861.003845,525.947632 868.166260,525.998230 
	C872.388062,526.028076 875.619995,524.562805 877.588318,520.274597 
	C877.898315,524.716919 878.053772,529.375671 877.974609,534.030457 
	C877.890869,538.948181 874.896057,541.934570 869.942688,541.977173 
	C859.959167,542.062988 849.951416,542.424316 839.997009,541.879333 
	C830.779541,541.374634 824.614502,534.979858 819.189148,528.395020 
	C809.139038,516.197144 799.527649,503.637939 789.725952,491.235199 
	C781.837158,481.252991 773.955444,471.265137 766.037659,461.305939 
	C755.889771,448.541870 745.681885,435.825470 735.552246,423.046997 
	C729.375183,415.254730 723.322754,407.363708 717.167480,399.553925 
	C709.701050,390.080414 702.185852,380.645386 694.690369,371.194794 
	C693.376648,369.538452 692.056458,367.887238 690.423462,366.120605 
z"/>
<path fill="#F2941B" opacity="1.000000" stroke="none" 
	d="
M1521.945312,522.998901 
	C1540.263550,523.016663 1558.581909,523.034424 1577.356934,523.051147 
	C1577.813599,528.170166 1577.813599,533.290222 1577.813599,538.705078 
	C1558.987793,538.705078 1540.297485,538.705078 1521.029175,538.705078 
	C1521.029175,533.777344 1521.029175,528.854614 1521.295654,523.467529 
	C1521.562012,523.003113 1521.945312,522.998901 1521.945312,522.998901 
z"/>
<path fill="#73DDBF" opacity="1.000000" stroke="none" 
	d="
M634.975220,523.067749 
	C652.948486,523.135681 670.921692,523.203674 689.352173,523.259705 
	C689.809448,528.241272 689.809448,533.234741 689.809448,538.614258 
	C671.500061,538.614258 653.103943,538.614258 634.017029,538.614258 
	C634.017029,533.931335 634.017029,529.011108 634.299072,523.633789 
	C634.581116,523.176636 634.975220,523.067749 634.975220,523.067749 
z"/>
<path fill="#6FDABD" opacity="1.000000" stroke="none" 
	d="
M1117.545654,254.916779 
	C1118.840210,256.582947 1119.975098,258.225494 1120.551636,260.044983 
	C1123.194214,268.384399 1125.702759,276.766693 1128.202271,285.150635 
	C1128.651001,286.655792 1128.830688,288.241180 1128.221069,290.249268 
	C1125.862915,287.360474 1123.504761,284.471680 1121.056885,280.966492 
	C1120.672852,279.882080 1120.378540,279.414062 1120.084229,278.946045 
	C1120.084229,278.946045 1120.093140,279.045685 1120.142822,279.045227 
	C1118.238525,272.276489 1116.331177,265.494171 1114.307251,258.746765 
	C1113.498779,256.051605 1113.963867,254.570435 1117.545654,254.916779 
z"/>
<path fill="#DB7C24" opacity="1.000000" stroke="none" 
	d="
M1708.059326,259.481018 
	C1708.423828,260.626312 1708.970093,262.234436 1708.971558,263.843018 
	C1709.013794,314.287628 1709.003418,364.732300 1708.995483,415.176941 
	C1708.995361,416.173706 1708.940063,417.171204 1708.878296,418.166351 
	C1708.870972,418.287384 1708.674683,418.465607 1708.542603,418.489716 
	C1708.421509,418.511871 1708.268921,418.361542 1708.027222,418.081177 
	C1707.945312,365.231445 1707.966309,312.587738 1708.059326,259.481018 
z"/>
<path fill="#2BA297" opacity="1.000000" stroke="none" 
	d="
M820.110962,259.563354 
	C820.456909,260.716095 820.981201,262.325500 820.982605,263.935364 
	C821.026428,314.049347 821.019897,364.163361 821.014893,414.277374 
	C821.014771,415.273743 820.952209,416.270935 820.885010,417.265442 
	C820.877014,417.383514 820.662537,417.561157 820.528992,417.575836 
	C820.404419,417.589508 820.259949,417.422821 820.015259,417.122070 
	C819.937500,370.108459 819.967529,323.308289 820.001465,276.508148 
	C820.005432,271.012177 820.030273,265.516205 820.110962,259.563354 
z"/>
<path fill="#1A958E" opacity="1.000000" stroke="none" 
	d="
M634.978027,522.593811 
	C634.975220,523.067749 634.581116,523.176636 634.376587,523.184082 
	C634.102661,512.543579 633.979492,501.895691 633.973389,491.247742 
	C633.950867,451.801605 633.966980,412.355438 634.241699,372.430603 
	C634.514832,371.951874 634.895996,371.910126 634.895996,371.910126 
	C634.924316,421.980042 634.952576,472.049957 634.978027,522.593811 
z"/>
<path fill="#E6A467" opacity="1.000000" stroke="none" 
	d="
M1521.137207,398.696198 
	C1521.489990,400.033569 1522.053589,401.814453 1522.055054,403.595795 
	C1522.070679,423.069366 1521.998535,442.543030 1521.735596,462.485718 
	C1521.520996,462.954773 1521.175537,462.963806 1521.175537,462.963806 
	C1521.145996,441.689178 1521.116577,420.414551 1521.137207,398.696198 
z"/>
<path fill="#3DA19E" opacity="1.000000" stroke="none" 
	d="
M634.907471,371.450012 
	C634.895996,371.910126 634.514832,371.951874 634.323669,371.967041 
	C634.052917,364.294922 633.973328,356.607574 633.857056,348.205566 
	C633.560425,347.293854 633.300354,347.096802 633.040344,346.899780 
	C633.110840,342.067047 633.181335,337.234344 633.598511,332.133179 
	C634.302795,333.772034 634.957458,335.677521 634.968933,337.586884 
	C635.035889,348.720703 634.951965,359.855469 634.907471,371.450012 
z"/>
<path fill="#55C5AF" opacity="1.000000" stroke="none" 
	d="
M532.391235,18.853424 
	C531.527100,18.979445 530.990662,18.920649 530.051392,18.813892 
	C531.917786,13.933246 534.187073,9.100557 536.773499,4.123001 
	C535.633423,8.874959 534.176208,13.771784 532.391235,18.853424 
z"/>
<path fill="#E3964D" opacity="1.000000" stroke="none" 
	d="
M1521.102783,463.430725 
	C1521.175537,462.963806 1521.520996,462.954773 1521.693115,462.949158 
	C1521.778320,474.032745 1521.691284,485.121948 1521.384155,496.551544 
	C1521.119263,485.893829 1521.074707,474.895752 1521.102783,463.430725 
z"/>
<path fill="#E29146" opacity="1.000000" stroke="none" 
	d="
M1521.958618,522.530396 
	C1521.945312,522.998901 1521.562012,523.003113 1521.370483,523.005859 
	C1521.130005,514.994141 1521.081055,506.979706 1521.095093,498.502625 
	C1521.429321,506.047272 1521.700684,514.054565 1521.958618,522.530396 
z"/>
<path fill="#F3951B" opacity="1.000000" stroke="none" 
	d="
M562.369995,114.963364 
	C562.200073,114.295776 562.331482,113.451599 562.640381,112.335480 
	C562.769043,112.971283 562.720215,113.879028 562.369995,114.963364 
z"/>
<path fill="#060E0C" opacity="1.000000" stroke="none" 
	d="
M633.125610,347.103577 
	C633.300354,347.096802 633.560425,347.293854 633.794800,347.739990 
	C633.547302,347.791199 633.361206,347.563995 633.125610,347.103577 
z"/>
<path fill="#55C5AF" opacity="1.000000" stroke="none" 
	d="
M531.226929,21.817936 
	C531.060547,21.539722 531.208191,21.328873 531.585510,21.064503 
	C531.664856,21.261200 531.573425,21.552639 531.226929,21.817936 
z"/>
<path fill="transparent" opacity="1.000000" stroke="none" 
	d="
M1090.208862,389.987946 
	C1089.809814,405.144135 1086.328491,419.748108 1079.650391,433.164459 
	C1071.317017,449.906311 1058.670288,462.353973 1040.797363,469.819092 
	C1027.189209,475.502899 1013.244629,475.294586 999.755005,473.488007 
	C985.514648,471.580811 972.323792,465.163605 960.884705,455.467529 
	C945.112488,442.098541 937.648010,424.666534 934.099304,405.063538 
	C932.962891,398.785675 932.683472,392.352722 932.361511,385.368103 
	C933.100464,383.505554 933.675110,382.291229 933.850342,381.021790 
	C935.480896,369.208801 938.328552,358.026093 944.506897,347.415100 
	C951.396179,335.583160 960.439758,326.453308 972.177246,320.059998 
	C990.685608,309.978638 1010.666138,307.682526 1031.044678,312.081879 
	C1058.410889,317.989746 1075.278320,335.779633 1084.011597,361.833740 
	C1085.905273,367.483154 1087.444580,373.251282 1089.076416,379.397919 
	C1089.406860,383.216705 1089.807861,386.602325 1090.208862,389.987946 
z"/>
<path fill="#71D9BD" opacity="1.000000" stroke="none" 
	d="
M1089.147095,378.964752 
	C1087.444580,373.251282 1085.905273,367.483154 1084.011597,361.833740 
	C1075.278320,335.779633 1058.410889,317.989746 1031.044678,312.081879 
	C1010.666138,307.682526 990.685608,309.978638 972.177246,320.059998 
	C960.439758,326.453308 951.396179,335.583160 944.506897,347.415100 
	C938.328552,358.026093 935.480896,369.208801 933.850342,381.021790 
	C933.675110,382.291229 933.100464,383.505554 932.371643,384.945709 
	C931.698181,383.926910 931.020935,382.690704 931.080994,381.491364 
	C932.207031,359.002686 937.019592,337.671448 952.122681,320.049957 
	C966.225281,303.595856 984.560181,295.742920 1006.049316,295.003021 
	C1017.838074,294.597107 1029.661987,294.688843 1040.884766,298.861847 
	C1067.563477,308.781799 1081.361816,329.564301 1087.865234,356.042206 
	C1089.552734,362.913025 1089.966553,370.096680 1090.712646,377.695129 
	C1090.022217,378.490631 1089.584595,378.727692 1089.147095,378.964752 
z"/>
<path fill="#60BDAB" opacity="1.000000" stroke="none" 
	d="
M1089.076416,379.397919 
	C1089.584595,378.727692 1090.022217,378.490631 1090.676514,378.132690 
	C1090.802368,381.766541 1090.711304,385.521271 1090.414551,389.631989 
	C1089.807861,386.602325 1089.406860,383.216705 1089.076416,379.397919 
z"/>
<path fill="transparent" opacity="1.000000" stroke="none" 
	d="
M1119.783203,279.154114 
	C1120.378540,279.414062 1120.672852,279.882080 1120.906006,280.655579 
	C1120.390747,280.428131 1119.936523,279.895142 1119.783203,279.154114 
z"/>
<path fill="transparent" opacity="1.000000" stroke="none" 
	d="
M1933.921875,416.975891 
	C1912.949341,416.982971 1891.976685,416.990082 1870.499268,416.598572 
	C1870.094116,415.556458 1870.099609,414.880615 1870.307373,414.274139 
	C1875.426880,399.334534 1880.685181,384.441315 1885.673218,369.458130 
	C1891.001953,353.450989 1896.079468,337.360107 1901.548340,320.434021 
	C1902.681274,322.514954 1903.485840,323.576660 1903.874756,324.773407 
	C1906.841675,333.904114 1909.668823,343.080383 1912.650513,352.206146 
	C1919.708252,373.806793 1926.827515,395.387268 1933.921875,416.975891 
z"/>
<path fill="#ED9320" opacity="1.000000" stroke="none" 
	d="
M1934.276855,417.112854 
	C1926.827515,395.387268 1919.708252,373.806793 1912.650513,352.206146 
	C1909.668823,343.080383 1906.841675,333.904114 1903.874756,324.773407 
	C1903.485840,323.576660 1902.681274,322.514954 1901.548340,320.434021 
	C1896.079468,337.360107 1891.001953,353.450989 1885.673218,369.458130 
	C1880.685181,384.441315 1875.426880,399.334534 1870.307373,414.274139 
	C1870.099609,414.880615 1870.094116,415.556458 1870.035400,416.591614 
	C1868.321167,417.069733 1866.565918,417.156158 1864.810669,417.242615 
	C1864.918945,415.516205 1864.663940,413.669800 1865.188965,412.081085 
	C1877.080566,376.091492 1889.056641,340.129761 1901.032104,304.167908 
	C1901.174438,303.740326 1901.516968,303.379364 1902.276855,302.183014 
	C1903.802612,306.813019 1905.105713,310.806702 1906.433838,314.792084 
	C1917.216919,347.150116 1928.012573,379.503937 1938.783325,411.866028 
	C1940.715332,417.670807 1940.212524,418.278992 1934.276855,417.112854 
z"/>
</svg>